<mxfile host="app.diagrams.net" modified="2021-06-29T05:16:57.760Z" agent="5.0 (X11; Linux x86_64) AppleWebKit/537.36 (KHTML, like Gecko) Chrome/91.0.4472.114 Safari/537.36" etag="yRvyN7AtXBQxj7rqdR_T" version="14.8.1" type="github">
  <diagram id="khM6PI-7oGTPokVUI7pL" name="Page-1">
    <mxGraphModel dx="1628" dy="733" grid="1" gridSize="10" guides="1" tooltips="1" connect="1" arrows="1" fold="1" page="0" pageScale="1" pageWidth="827" pageHeight="1169" math="0" shadow="0">
      <root>
        <mxCell id="0" />
        <mxCell id="1" parent="0" />
        <mxCell id="oCyZnYADgW9JceBVOA9t-1" value="" style="shape=image;verticalLabelPosition=bottom;labelBackgroundColor=#ffffff;verticalAlign=top;aspect=fixed;imageAspect=0;image=https://www.jenkins.io/images/logos/jenkins-x/jenkins-x.png;" parent="1" vertex="1">
          <mxGeometry x="5.38" y="362.5" width="158.28" height="195.5" as="geometry" />
        </mxCell>
        <mxCell id="oCyZnYADgW9JceBVOA9t-3" value="" style="aspect=fixed;html=1;points=[];align=center;image;fontSize=12;image=img/lib/azure2/containers/Container_Registries.svg;" parent="1" vertex="1">
          <mxGeometry x="261.38" y="459" width="68" height="61" as="geometry" />
        </mxCell>
        <mxCell id="oCyZnYADgW9JceBVOA9t-5" value="&lt;b&gt;&lt;font style=&quot;font-size: 14px&quot;&gt;REGISTRY&lt;/font&gt;&lt;/b&gt;" style="text;html=1;strokeColor=none;fillColor=none;align=center;verticalAlign=middle;whiteSpace=wrap;rounded=0;" parent="1" vertex="1">
          <mxGeometry x="260" y="529" width="80" height="20" as="geometry" />
        </mxCell>
        <mxCell id="oCyZnYADgW9JceBVOA9t-6" value="" style="shape=image;verticalLabelPosition=bottom;labelBackgroundColor=#ffffff;verticalAlign=top;aspect=fixed;imageAspect=0;image=data:image/png,iVBORw0KGgoAAAANSUhEUgAAANEAAADxCAMAAABiSKLrAAAAq1BMVEX///8PFokAAIMAAIGoqtALE4gAAIbc3ekAAIIAAH6usNMKEojKy+IADIfv7/kIEIiSlcWztNQvNJWPksXX2eu7vdpjZ69eYq4WHo5zdrTExt8iKJDy8/kyOZr3+PtKTp5naahRVKHl5vObnstSVajR0uc4PJhpbLBDSaMoLpQwNJMVHZA9QZtBRJmGicB5fLWgo81wc7R/gbWnqMseJJAAAHWHisNOUZ1na7ODxT0lAAAOOElEQVR4nO1dDXeiOhOWYCKKIVpF/KC44Kq1tWq73vvu//9lL2qtZBJRSKh6D8/p2T2n2mSefEwmk0mmUvkpOJvff4fBj1VXPLpjk1ro07+1HNoQLYgRAw1uLYg2DJCxhzW8tSSaMMT4wIiOnVvLogXBgBhfIO1bC6MFNYaPjKzwP6HvWsj4hhXdWhodeGInRqhza2k0oIvwiREd31ocDdiQEyGDPXVvLY86PpOMMH18bed7NMHIQH9uLZAyaknFEK9I64fX312Kk4zo74c3V5tWkpDBRg9vCG0Qx8ggD89oBRiZD281fBDAqHlriVTh8fPIsBq3lkgVL5RnhDa3lkgVzwwwmtxaIlU83SEjNeWkmZG6pgzWBJGXdv6CNI667mYRC6OqWVoWjg1ma7HJa45p0wzRilrx/p4RN2cBB3SZfTBeSD/nxsYDjPJq7wYlBwORLpUsw7Z5lIT28w2XuZYV1l+T79GLlOyozsmGYfk2AlqsoGhMTha8qbQNTsqDUS9H6zR4RjiPpdqcJTtajVGLkwd52cXRsJuYjjgp1GzdIS8PCjPL0yX8jm+ceV4PF5xywUxpHoEdqIF6WecS3JUPshYQ9XltSV+UdF30DpeTeUaJ/B7XzSSr56T2CiVQdGKugfI1yCpjCbx3i2VdH8eCAIpGQxUWiLMu+g3OA/macVr3gPLPXgKEw0/sXZGLTNrTGbKkl9jLVn2VwupRxhJE/IWdZNC3y1MpcKJaY+29LPpGPykTHoXzjhtFznWzsUtsWLv6OWFTYGSg9QU52q1fS2wiZFFmY76RMSXIQtvxYDO8rLL8MYV102dlD6YvjOQ057UfNXrLLSWEwdHCwY6/YbyGk1o6q47YmsqbiRhtgZHB3qSS+O4mJBaK+yWNzXe7MIrQsuWeXy+bwhw22FKHc2wpdL2BRBUedD/eDSJM5AugiM7mTflACuBaGMNqaSBUccVOsvtgT1BrLFFmOntgRqzFZCqpdyOOObbVcg4QeJLhzAVbROsZEdvzejC07QkrryPpIlLVQSi2fbeCDk1s3PyhF88dBT472MhcAGdGxxK+ld2qPIe1pPDjQueGRByVecDIspoQ2LHFZqzrO/J8FygdDLRgujBzzR4pqEXa30pUprk1HrQP+8KwIvEy251Tlekjwibh11InGP2xntMag1MVO4l2W0xcMFRByXKv98RVEFOZQsyPuVADfUaX+NiMxkCEoBiEEEpZui2xL5e2AtHNp9+9HIkmVrp+YwSR0ex9/L+wN1+vWp3VejAPx8tFP/49Tf1Tm8ymjgl/q/9Iukuu1tCxeWORxXzSbkbQWnK6w/afz3BURyilt6jxG7YfWeo/7XSZqE5ldAh9Gq9cJ22/4PvdjfeaYjNhSIguijjsbFycN/EG11p8tq/zbATDiUfSeirZTFu9WuGISTolTIjtuVna0q+1RvSK0cxIUeGg1TRtTemvRo6xPlwvLvU9GxV3Gj05Z/BgYi2nOZVRtCIobaGmqJghd8BKtE12IPiXUq2b8fneR89FBrBV4RnkoX9ML2//HOFsyBn7nS5qemSXIVjJZjGlcx2N6HS2sv5nsyJ7aC2Zwsx61hUDOJ3XJQ2G1I70UgHPtnYgo5VG46Qxk0wnFBYVSbSSeGaQp3dMRGvJ7h6FxfSSZHlF/ar2gEb3SeLx7BVBqSX2EBoXsfBFPUlN2vwLJ4jWAiN/ixkMQUcceehDN6UqhXY3e9PkaJKg+SzsmNGH3iqiN6hWaWG24w61vqBW9e5g/RlsM7IsNrTemcMaMdLZhMLJJXouOtg0mMNtOdW4ia3CwtHHD8RsT6AuIr91FT3FQCugn7kWtbIAJV3xoBE8bEHzH4rYhksgpmpxaEf0TMRBr2czFStQNdIS/e56PR7rn4tADyagcu8OYlxLlChRokSJEiVKlChRokSJEmfg1JKATiv+U/BhULsA/us+99llf9/he9d7So7ldurmN+pv0PO7Snxq/gNKH/5jpqHe59tnSJIfXg7a3pdev/p4b4L2369yV8DEZ2I6SX96HTBqCtFVHBiInW8mLxugy0e39YMf9cpz5cHBtYcad8/IQNdcWvU/vs4fH4GRQUcXHanB9xWlh2BkMOsCpWj8LeZjMDKYkXqaGCVulj4II8OuT84fhkwXicOtR2FkYHr27mCTu1n6MIwMbHryNbnBh7HpZLQPg06CPGlkFC9MUkpVEM+skRGejSFAUMVQjVG81ormQwuGkmlkxKq+AwDaVJWRQd6hZSkGKmlkdPlVOsVRt/ujLSefL4mNezBGBl0k1tpAvDD5eIwMeqomkhF6PEaxRv06iI3epUHNkNHr3TMybLKn1H2XhzQLfdTkFZb/r0ZGyrruAIzWQaVJz4SdA0ZG/z3k8ZQMNknX3hdNfj19ZOxu7bijc/HukJGw8HPRM+kr7EvP4/AvlFBTH+0oWWcvWgiMUnHBCrKQdfg5/CNEJWnrozToZARAS0YloztgpKQZmHz52VWUtj+6X0bUE+JKv0DGE67cRxl1ZC29hBJ/EDpN4yEZDXZh7bI7Ik5l+KiMdu9PwIWV7J6XKowRMDf0rrCH5y2qvBbA1v7mQTojir5X/v3izzVKuhX0DsIvBXeUimb4erCjmbTnMDtUkcqo/5u3zXqzJKULfobA5yC4DDUwqjRP3ka7/hUqncZI3B+17mR/9P2oir/8osS2xxOoVEZ3u4c9PRMThXuREvdQHp1RpbK7b0UXp6tcj88oWCMySgh6O0Y6NMOXVMukK/JeGLWmAE146fk8owrnrb0TRng7AtjClwNTGPHlFsQoo+fEwDYAHd0ZI3v8C2KQctoiwr43RrEBRdDh5/j/4sEZCUg94ysZlYxKRiWjklHJiGPUqZ8um5pbyGiV+BTBGMhmHaXBHMEYSCvt6xYGjP5JfFhPecqAK7derUyrCQhvTHGfwhQa0aaaCmC7RunfrjZA/ANXesq1f67cTYFPC5UoUaJEiRIlSpQoUaJEiRIlSoiI2i7ATz0l5sOKXT2vYjseATE/syKf205UPIdXmmBCn7yInijmQEmxz1oe4PxGfLU20vMgX2Xn5APPJtJF8b3k9GDYo5U1EWAKGjCLAiVFp1GPtjBOjmh99vYDvm7Ktroe9ZajO4OE6FbvY40hHALM7BT4YKcrZAJgglNeEbUnWAXWOwo4tISUMFhXuq0TuluRUkFaPPIQfNYZEy0p3niAtLP7oZ0zl3Q63JkQ2411Jqc6YcrEdEFkrvt4w2+J1WBUQA/tIOklg5Cq1ieKp2MxUh1nzkh7NZqGSMlG7xpn03orJpXDqjl70zCUXTejZKBJsbZngkrYMSqsh3ZwbdkNOvS60rD6TefSdDR2tvy6mdEdy+7QMYQ+FcfetGeeyUXDtD6+LmIuv+aI0fZToS2bH29nbxgZrF9cjoGK/3L2noVN6r1mrsEXuU/n+uer6HphusGXJCFNgJCwk9kmn7aWF9OWYloQpWCZSsjY6T26WHWv7ik/2mWVvSIpXkEaPBDTJkrqZoiMJ9fM5cideG/WlWk+MS1iLp27SyeAEmPpddwIPqNxROBH7mC8wMQ6m+CPQqaMaNuSf6Oa4T4n3l1hRttw9afRdofT2i7bYOA7UXc6dBut3jMxCU1JxIdRKORaYky3pd98Exr0YtI5uossNraL1+X7/8bj9+XsadS3CbqU8NfCq6AiJgZ90etVc4T9kUHW9jV35jC22eFOHGNCPnZZO6Bw1xsfwhhHc62M1pI282NLWW/C2918eZvsp58kVznSqR0kibb3yd0bnnLOaF7oxdFEDOZClexNnwfKEZMSs8PVDb/at3T1EyPo72kH2ZBk31pqYyS4guLp+70j34RKucqPsNErn5xjJpZq6trMDkVNy95Oi43jvljXp8OVAlOLtsAOvy3u/pimLEW+mJYaE94D2R3MFLKWM2SEMGh098aRZNyttTBqiI1lCQmDooZnISHb2GVgRsz+aigzL5qiiYSJjk7yxeycGMk2Q1FnPCLZhh9FxnLgnnNlikuGQXRkSJNobnRu7z/987E1UZqF8w073vmil5a0d77gPIvDXcMZkiPOIip5S+6IwJ92wldjl8L77BCMzSNCtrPe5tJrvm1x3BH1meSKs8i8dDDhD6utj5c+MpGQm5xaJlmE6031KsPzU8wsT5QdhELmcIP0rvm7wIlqw2rnI3xJtjMdu9MoEi/Sn4Fk3FmqtlAk2Fd0nK2VppT742zVd0dCbsOMJQgQ9ALLmsd5kiyBZT3wrNbh3k/RgRf8AoyYkXUzye99SdbDQWHvp3iUVAOLEc6cX9IJ+Sd9sibVC2BCSDJQOoqb8l2U4ySntuDaJMfRILCT2bOStuPNxTwHH11ennijmLUEx0O8EEpedm4U5zprA+uZ/ZZdnoDvJVPJthskymK5Dg83YGajHC3sz5NeGlPpYDHRRzSfkoFuvnzyfCQsYLU+ah/vH2L0ns8HCB8+NfMdnmz6x6U+z7hNoLbdt41NjEFODQOtKOtyZgYpohAdhh5S096VBiGUord17oVaSMaaO8vr0NvLIlxyzYrmfPZ7JaQLuR7P8MXq/EEQ/vTvy3Jw8/uUcAesN6n1LfDfY6Rx1N0JXqBmKPCc+GfgAdP5UoqP+wc8NjF/JhK5QHSgzfBzmacLAnBfK+4F7gFTvo/Yk9bwtVuga3OuDxo+PKNoxu/KP28tkDKAN4nkNL3vCZ0kI5zZOXaHaHMeyOXDq7p4D5A8YEDercXRgaRlp+yHvwtsEmvs46+vO0Qnr6qWQ8c7wLe2w3axUbQ/hu72q5NIr8ArPj+KL78q03J2fxcI9l5eRnI7tu4PwQohi/4HzIUEhpvqT9w5/T/oPjfEX6LtZAAAAABJRU5ErkJggg==;" parent="1" vertex="1">
          <mxGeometry x="255" y="353.5" width="69.38" height="80" as="geometry" />
        </mxCell>
        <mxCell id="oCyZnYADgW9JceBVOA9t-10" value="" style="aspect=fixed;html=1;points=[];align=center;image;fontSize=12;image=img/lib/azure2/networking/Application_Gateways.svg;" parent="1" vertex="1">
          <mxGeometry x="263.38" y="558" width="64" height="64" as="geometry" />
        </mxCell>
        <mxCell id="oCyZnYADgW9JceBVOA9t-14" value="" style="rounded=1;whiteSpace=wrap;html=1;fillColor=none;strokeWidth=2;" parent="1" vertex="1">
          <mxGeometry x="400" y="330" width="430" height="460" as="geometry" />
        </mxCell>
        <mxCell id="oCyZnYADgW9JceBVOA9t-15" value="&lt;b&gt;&lt;font style=&quot;font-size: 11px&quot;&gt;RESOURCE GROUP&lt;/font&gt;&lt;/b&gt;" style="text;html=1;strokeColor=none;fillColor=none;align=center;verticalAlign=middle;whiteSpace=wrap;rounded=0;" parent="1" vertex="1">
          <mxGeometry x="376" y="307" width="160" height="20" as="geometry" />
        </mxCell>
        <mxCell id="oCyZnYADgW9JceBVOA9t-13" value="" style="aspect=fixed;html=1;points=[];align=center;image;fontSize=12;image=img/lib/azure2/general/Resource_Groups.svg;" parent="1" vertex="1">
          <mxGeometry x="400" y="325.5" width="42.5" height="40" as="geometry" />
        </mxCell>
        <mxCell id="oCyZnYADgW9JceBVOA9t-17" value="" style="rounded=1;whiteSpace=wrap;html=1;dashed=1;strokeWidth=2;fillColor=none;strokeColor=#00CCCC;" parent="1" vertex="1">
          <mxGeometry x="420" y="350" width="390" height="420" as="geometry" />
        </mxCell>
        <mxCell id="oCyZnYADgW9JceBVOA9t-11" value="" style="aspect=fixed;html=1;points=[];align=center;image;fontSize=12;image=img/lib/azure2/networking/Virtual_Networks.svg;" parent="1" vertex="1">
          <mxGeometry x="710" y="722.5" width="33.5" height="20" as="geometry" />
        </mxCell>
        <mxCell id="oCyZnYADgW9JceBVOA9t-18" value="&lt;b&gt;&lt;font style=&quot;font-size: 11px&quot;&gt;VIRTUAL NETWORK&lt;/font&gt;&lt;/b&gt;" style="text;html=1;strokeColor=none;fillColor=none;align=center;verticalAlign=middle;whiteSpace=wrap;rounded=0;" parent="1" vertex="1">
          <mxGeometry x="632.5" y="750.5" width="160" height="20" as="geometry" />
        </mxCell>
        <mxCell id="oCyZnYADgW9JceBVOA9t-20" value="" style="endArrow=classic;html=1;strokeWidth=3;" parent="1" edge="1">
          <mxGeometry width="50" height="50" relative="1" as="geometry">
            <mxPoint x="170" y="489" as="sourcePoint" />
            <mxPoint x="250" y="489" as="targetPoint" />
          </mxGeometry>
        </mxCell>
        <mxCell id="oCyZnYADgW9JceBVOA9t-21" value="" style="endArrow=classic;html=1;strokeWidth=3;" parent="1" edge="1">
          <mxGeometry width="50" height="50" relative="1" as="geometry">
            <mxPoint x="170" y="399" as="sourcePoint" />
            <mxPoint x="250" y="399" as="targetPoint" />
          </mxGeometry>
        </mxCell>
        <mxCell id="oCyZnYADgW9JceBVOA9t-22" value="" style="endArrow=classic;html=1;strokeWidth=3;" parent="1" edge="1">
          <mxGeometry width="50" height="50" relative="1" as="geometry">
            <mxPoint x="331.5" y="400" as="sourcePoint" />
            <mxPoint x="388.5" y="400" as="targetPoint" />
          </mxGeometry>
        </mxCell>
        <mxCell id="oCyZnYADgW9JceBVOA9t-23" value="" style="endArrow=classic;html=1;strokeWidth=3;" parent="1" edge="1">
          <mxGeometry width="50" height="50" relative="1" as="geometry">
            <mxPoint x="390" y="488" as="sourcePoint" />
            <mxPoint x="335" y="488" as="targetPoint" />
          </mxGeometry>
        </mxCell>
        <mxCell id="oCyZnYADgW9JceBVOA9t-28" value="push" style="text;html=1;strokeColor=none;fillColor=none;align=center;verticalAlign=middle;whiteSpace=wrap;rounded=0;" parent="1" vertex="1">
          <mxGeometry x="190" y="459" width="40" height="20" as="geometry" />
        </mxCell>
        <mxCell id="oCyZnYADgW9JceBVOA9t-29" value="upgrade" style="text;html=1;strokeColor=none;fillColor=none;align=center;verticalAlign=middle;whiteSpace=wrap;rounded=0;" parent="1" vertex="1">
          <mxGeometry x="340" y="369" width="40" height="20" as="geometry" />
        </mxCell>
        <mxCell id="oCyZnYADgW9JceBVOA9t-30" value="pull" style="text;html=1;strokeColor=none;fillColor=none;align=center;verticalAlign=middle;whiteSpace=wrap;rounded=0;" parent="1" vertex="1">
          <mxGeometry x="347" y="459" width="40" height="20" as="geometry" />
        </mxCell>
        <mxCell id="oCyZnYADgW9JceBVOA9t-31" value="&lt;span style=&quot;font-size: 14px&quot;&gt;&lt;b&gt;APP GATEWAY&lt;/b&gt;&lt;/span&gt;" style="text;html=1;strokeColor=none;fillColor=none;align=center;verticalAlign=middle;whiteSpace=wrap;rounded=0;" parent="1" vertex="1">
          <mxGeometry x="227" y="632" width="160" height="20" as="geometry" />
        </mxCell>
        <mxCell id="oCyZnYADgW9JceBVOA9t-32" value="" style="html=1;dashed=0;whitespace=wrap;points=[[0.005,0.63,0],[0.1,0.2,0],[0.9,0.2,0],[0.5,0,0],[0.995,0.63,0],[0.72,0.99,0],[0.5,1,0],[0.28,0.99,0]];shape=mxgraph.kubernetes.icon;prIcon=ing;rounded=1;strokeColor=#009900;" parent="1" vertex="1">
          <mxGeometry x="610" y="640" width="50" height="48" as="geometry" />
        </mxCell>
        <mxCell id="oCyZnYADgW9JceBVOA9t-33" value="" style="html=1;dashed=0;whitespace=wrap;fillColor=#2875E2;strokeColor=#ffffff;points=[[0.005,0.63,0],[0.1,0.2,0],[0.9,0.2,0],[0.5,0,0],[0.995,0.63,0],[0.72,0.99,0],[0.5,1,0],[0.28,0.99,0]];shape=mxgraph.kubernetes.icon;prIcon=api;rounded=1;" parent="1" vertex="1">
          <mxGeometry x="731.25" y="550" width="50" height="48" as="geometry" />
        </mxCell>
        <mxCell id="oCyZnYADgW9JceBVOA9t-35" value="&lt;b&gt;&lt;font style=&quot;font-size: 14px&quot;&gt;AGIC&lt;/font&gt;&lt;/b&gt;" style="text;html=1;strokeColor=none;fillColor=none;align=center;verticalAlign=middle;whiteSpace=wrap;rounded=0;" parent="1" vertex="1">
          <mxGeometry x="600.5" y="690" width="72.5" height="18" as="geometry" />
        </mxCell>
        <mxCell id="oCyZnYADgW9JceBVOA9t-36" value="&lt;span style=&quot;font-size: 14px&quot;&gt;&lt;b&gt;K8S API&lt;/b&gt;&lt;/span&gt;" style="text;html=1;strokeColor=none;fillColor=none;align=center;verticalAlign=middle;whiteSpace=wrap;rounded=0;" parent="1" vertex="1">
          <mxGeometry x="720" y="606" width="72.5" height="18" as="geometry" />
        </mxCell>
        <mxCell id="oCyZnYADgW9JceBVOA9t-37" value="" style="edgeStyle=segmentEdgeStyle;endArrow=classic;html=1;strokeWidth=1;" parent="1" edge="1">
          <mxGeometry width="50" height="50" relative="1" as="geometry">
            <mxPoint x="664" y="694" as="sourcePoint" />
            <mxPoint x="760" y="634" as="targetPoint" />
          </mxGeometry>
        </mxCell>
        <mxCell id="oCyZnYADgW9JceBVOA9t-38" value="" style="edgeStyle=segmentEdgeStyle;endArrow=classic;html=1;strokeWidth=1;" parent="1" edge="1">
          <mxGeometry width="50" height="50" relative="1" as="geometry">
            <mxPoint x="610" y="693" as="sourcePoint" />
            <mxPoint x="300" y="660" as="targetPoint" />
          </mxGeometry>
        </mxCell>
        <mxCell id="oCyZnYADgW9JceBVOA9t-41" value="" style="html=1;dashed=0;whitespace=wrap;fillColor=#2875E2;strokeColor=#ffffff;points=[[0.005,0.63,0],[0.1,0.2,0],[0.9,0.2,0],[0.5,0,0],[0.995,0.63,0],[0.72,0.99,0],[0.5,1,0],[0.28,0.99,0]];shape=mxgraph.kubernetes.icon;prIcon=svc;rounded=1;" parent="1" vertex="1">
          <mxGeometry x="470" y="558" width="50" height="48" as="geometry" />
        </mxCell>
        <mxCell id="oCyZnYADgW9JceBVOA9t-42" value="&lt;b&gt;&lt;font style=&quot;font-size: 14px&quot;&gt;SVC&lt;/font&gt;&lt;/b&gt;" style="text;html=1;strokeColor=none;fillColor=none;align=center;verticalAlign=middle;whiteSpace=wrap;rounded=0;" parent="1" vertex="1">
          <mxGeometry x="458.75" y="614" width="72.5" height="18" as="geometry" />
        </mxCell>
        <mxCell id="oCyZnYADgW9JceBVOA9t-43" value="" style="endArrow=classic;html=1;strokeWidth=1;" parent="1" edge="1">
          <mxGeometry width="50" height="50" relative="1" as="geometry">
            <mxPoint x="340" y="585" as="sourcePoint" />
            <mxPoint x="460" y="585" as="targetPoint" />
          </mxGeometry>
        </mxCell>
        <mxCell id="oCyZnYADgW9JceBVOA9t-44" value="" style="aspect=fixed;html=1;points=[];align=center;image;fontSize=12;image=img/lib/azure2/containers/Kubernetes_Services.svg;rounded=1;strokeColor=#00CCCC;strokeWidth=2;fillColor=none;" parent="1" vertex="1">
          <mxGeometry x="450" y="375.5" width="118.43" height="104.5" as="geometry" />
        </mxCell>
        <mxCell id="oCyZnYADgW9JceBVOA9t-45" value="" style="aspect=fixed;html=1;points=[];align=center;image;fontSize=12;image=img/lib/azure2/general/Browser.svg;rounded=1;strokeColor=#009900;strokeWidth=2;fillColor=#ffffff;" parent="1" vertex="1">
          <mxGeometry x="150" y="572" width="45" height="36" as="geometry" />
        </mxCell>
        <mxCell id="oCyZnYADgW9JceBVOA9t-46" value="" style="endArrow=classic;html=1;strokeWidth=1;" parent="1" edge="1">
          <mxGeometry width="50" height="50" relative="1" as="geometry">
            <mxPoint x="201.2500000000001" y="589.5" as="sourcePoint" />
            <mxPoint x="244.87" y="589.5" as="targetPoint" />
          </mxGeometry>
        </mxCell>
        <mxCell id="oCyZnYADgW9JceBVOA9t-47" value="&lt;b&gt;&lt;font style=&quot;font-size: 12px&quot;&gt;BROWSER&lt;/font&gt;&lt;/b&gt;" style="text;html=1;strokeColor=none;fillColor=none;align=center;verticalAlign=middle;whiteSpace=wrap;rounded=0;" parent="1" vertex="1">
          <mxGeometry x="133.75" y="614" width="77.5" height="20" as="geometry" />
        </mxCell>
        <mxCell id="oCyZnYADgW9JceBVOA9t-48" value="" style="shape=image;verticalLabelPosition=bottom;labelBackgroundColor=#ffffff;verticalAlign=top;aspect=fixed;imageAspect=0;image=data:image/png,iVBORw0KGgoAAAANSUhEUgAAAOEAAADhCAMAAAAJbSJIAAAAqFBMVEX///9fQ+lAQLL6+v45ObCilPFPK+dZOuhRL+hWN+j39/x9fce3rfTp5vtUM+heQekxMa4tLa28s/XVz/ifkfF7ZuyBbe1oTuonJ6ypqdk3N7BsU+vc1/nNxveZivDl4fvHx+aHh8vW1u1/a+3h4fJLS7aFcu5kZL7Cufbt6vypnPKLee50Xuu6uuCZmdLs7PdbW7tFGue0qfRLJOciIqtkSepZWbt1dcQVUpZjAAAF8klEQVR4nO2d63baOBSFZWMwkICBMARIm0svaZOZaUtop+//ZiMZEyxbsiVjR0en5/vTH+1a8bfK7tnWhTJGEARBEARBEARBEAThP+/vXD9B17zslt9dP0O3XI7i+MX1Q3TK5ShIptfvXT9Gh3DDIEiGf+GNY2rIHQe3Y9eP0hGZYRDEQ6RxfDVEG8eToYjjCmEc84b8ozq9RTcdZUPuOMIWx6Ihj2OAK44lQxHHj5jiqDBMpyOeOCoNeRzxlFWNIaLpqDMUjjjKqt4QS1mtMuRxHFy6fsCzqTbEEMcaQwTTsdYwLas+x9HA0POyamTI4/jL2ziaGfq8lGNq6G9ZNTf0tazaGPo5Ha0MvYyjpWEax57rh7bC2jAI9hPXD21FA8MhGcKiseH4LSfH5oxi3Niwt7u5akughvvPayeGg2S4eovP66cv8yhyYyiWAJZdT47xwzoKQ2eG4r1q0ZaLks18G4ZODXmR6zCO959nYejaUJScx27iyAMYhhAMxTLHsv1ljvHDPAqhGAZJHLcdx81sG4ZwDNNljjbjeB/OwhCWYatxzAUQkqE4zdFvI46HCQjSMAhGyflx3Gy3RT9AhudPx9cJCNUwPbHSPI7lAAI0TMtqs+cZP/wsBRCkoWgATeIoT0DYhk3iqAkgVEMRR6vpqA0gXEOrsipVUH8Mzd8dqwII29CsrBYrqFeGBtPx05d1vR9kw5rpqKqg3hmKsqo7saKsoK0bvky7NtRNR6MAtmB4dz1NOjZMT6wU41g3AdszZOxrMrJztDcsrawaB7AVQ9Z7nsZdG4rpeIpjtgr6ZoaMPf09sPhrbGYo4vgu/WnVFbQbQ8be/TM0dmxoyP9VXaY/67flX2A7hmkcuzaM++lPurCKYHuGjD0PzOLoryGPo9FH1WNDEUeD6ei1IY/jr9rp6LmhwXT03bB+OvpvyON4U/VPDgbD6rKKw5BPR20csRjqpyMaQ21ZRWSoKauoDJVlFZmhIo7YDMtlFZ9hcTpiNJTLKkpDqawiNcxNR7SGr3FEbJiVVdSG6XTEbSjiuENuyNgCveEBMkRguLPddzzDcO7kMvmt3Z7cGYbb2TcXgozdPdrsyTU2jNa/3d0/vrqx2iJvZDj/74MzP8HC5qPawHC2/depH6e3HBo7WhtGa0cBlJmsTLePLQ2jucMAypjG0c5w/sNtANk4yB0DWhhtkdsYzkL3AdznD8mO+wZb5OaG0fyb+yvxvLXFw9wxoMmqdjqaGjqdgCfSXiodkr2qO0BmaOh6Ah45NO9kep2PY1z9vVomhrPIeQAzju8W0o2u8bKqARgY8grqPoAZp7cn6UbXpKKs1hpG6wsIAczIvx9KN7r007HO0PkElJHegOVDsouR+qNabQgngBmFd/xkuHo6/d5SOR2rDIFU0DylVQzpzLqyrOoNAVXQE4p1Gum+syKOWkNgAcxQrUQV4lgsqxpDABVUiXqtTbrRNS68OyoNtxAqqBLdamI8zZdVaToqDGFNQBn9emn+zLpUVsuGUCqokooV4VJZTdSGUAOYUbnmLZXV3rGsyobOVkFNqVnVly5YTh7T6Zg3hBzAjNp9izjOx1FMx5whzAkoU78zUyqrr4bgKqgSk70naTr2+vvDjZKLn8ADmGG2uxbv83H8mv6ygR7ADNP9w/a/nOetMN4h7fS7srrEYg/Y0/+/xmqXOx528F1ZXWO5jy+VVT+wPakgl1UfsD+LkeyfXT+0Fc1Pm/gCGZIhfMiQDOFDhmQIHzIkQ/iQIRnChwzJED5kSIbwIUMyhA8ZkiF8ejvbC5a+GR6PASE2tL5g6aFh7RUSBIalQ7L4DI1udHluaHCjy3tD4zh6bFhzowuDodl09NvQZDr6bijiWP1R9d9Qd6MLkSFjT1VxRGFYGUckhhVfP4DGUPv1A3gMdWUVk6E6jrgMVWUVmyHr9QvvjugMS2UVoWEhjigNpa8fQGqYK6tYDU9xxGt4jCNmw0NZxW3Iy+p0ittQlNVb14/QOU/1f4QgCIIgCIIgCIIgiD+X/wEzo5EzDuDO6gAAAABJRU5ErkJggg==;" parent="1" vertex="1">
          <mxGeometry x="51.64" y="703.5" width="75" height="75" as="geometry" />
        </mxCell>
        <mxCell id="oCyZnYADgW9JceBVOA9t-50" value="&lt;span style=&quot;font-size: 14px&quot;&gt;&lt;b&gt;TERRAFORM&lt;/b&gt;&lt;/span&gt;" style="text;html=1;strokeColor=none;fillColor=none;align=center;verticalAlign=middle;whiteSpace=wrap;rounded=0;" parent="1" vertex="1">
          <mxGeometry x="17.5" y="677.5" width="160" height="20" as="geometry" />
        </mxCell>
        <mxCell id="oCyZnYADgW9JceBVOA9t-51" value="" style="aspect=fixed;html=1;points=[];align=center;image;fontSize=12;image=img/lib/azure2/storage/Storage_Accounts.svg;rounded=1;strokeColor=#009900;strokeWidth=2;fillColor=#ffffff;" parent="1" vertex="1">
          <mxGeometry x="17.5" y="810.5" width="52.5" height="42" as="geometry" />
        </mxCell>
        <mxCell id="oCyZnYADgW9JceBVOA9t-52" value="&lt;b&gt;STORAGE ACCOUNT&lt;/b&gt;" style="text;html=1;strokeColor=none;fillColor=none;align=center;verticalAlign=middle;whiteSpace=wrap;rounded=0;" parent="1" vertex="1">
          <mxGeometry x="-20" y="860" width="130" height="20" as="geometry" />
        </mxCell>
        <mxCell id="oCyZnYADgW9JceBVOA9t-56" value="" style="endArrow=classic;html=1;strokeWidth=3;" parent="1" edge="1">
          <mxGeometry width="50" height="50" relative="1" as="geometry">
            <mxPoint x="88" y="570" as="sourcePoint" />
            <mxPoint x="88" y="663.5" as="targetPoint" />
          </mxGeometry>
        </mxCell>
        <mxCell id="oCyZnYADgW9JceBVOA9t-57" value="" style="endArrow=classic;html=1;strokeWidth=3;" parent="1" edge="1">
          <mxGeometry width="50" height="50" relative="1" as="geometry">
            <mxPoint x="139.27999999999997" y="746.5" as="sourcePoint" />
            <mxPoint x="400" y="746.5" as="targetPoint" />
          </mxGeometry>
        </mxCell>
        <mxCell id="oCyZnYADgW9JceBVOA9t-60" value="" style="endArrow=classic;html=1;strokeWidth=2;" parent="1" edge="1">
          <mxGeometry width="50" height="50" relative="1" as="geometry">
            <mxPoint x="81.75999999999999" y="770.5" as="sourcePoint" />
            <mxPoint x="41.760000000000005" y="805.5" as="targetPoint" />
          </mxGeometry>
        </mxCell>
        <mxCell id="oCyZnYADgW9JceBVOA9t-61" value="backend state" style="text;html=1;strokeColor=none;fillColor=none;align=center;verticalAlign=middle;whiteSpace=wrap;rounded=0;" parent="1" vertex="1">
          <mxGeometry x="64.91" y="790" width="98.75" height="20" as="geometry" />
        </mxCell>
        <mxCell id="oCyZnYADgW9JceBVOA9t-64" value="plan" style="text;html=1;strokeColor=none;fillColor=none;align=center;verticalAlign=middle;whiteSpace=wrap;rounded=0;" parent="1" vertex="1">
          <mxGeometry x="41.75999999999999" y="603.5" width="40" height="20" as="geometry" />
        </mxCell>
        <mxCell id="oCyZnYADgW9JceBVOA9t-65" value="apply" style="text;html=1;strokeColor=none;fillColor=none;align=center;verticalAlign=middle;whiteSpace=wrap;rounded=0;" parent="1" vertex="1">
          <mxGeometry x="207" y="722.5" width="40" height="20" as="geometry" />
        </mxCell>
        <mxCell id="oCyZnYADgW9JceBVOA9t-66" value="&lt;b&gt;&lt;font style=&quot;font-size: 14px&quot;&gt;AKS CLUSTER&lt;/font&gt;&lt;/b&gt;" style="text;html=1;strokeColor=none;fillColor=none;align=center;verticalAlign=middle;whiteSpace=wrap;rounded=0;" parent="1" vertex="1">
          <mxGeometry x="420" y="485.5" width="160" height="20" as="geometry" />
        </mxCell>
        <mxCell id="oCyZnYADgW9JceBVOA9t-67" value="" style="shape=image;verticalLabelPosition=bottom;labelBackgroundColor=#ffffff;verticalAlign=top;aspect=fixed;imageAspect=0;image=data:image/jpeg,/9j/4AAQSkZJRgABAQAAAQABAAD/2wCEAAkGBxIHBhUSBxIVFhUXFyIZGBYWFxobGBcaFxUWHh4YHxgfHyggGCYlJx0YJTEnJSorLi4uGiAzODMsNzQtLi0BCgoKDg0OGhAPGDMeHiUtNy0vNy4rLTArLS4tKy01NS0tLSstLSstLTUrLS0tLSstKy0tLTc2NystLS0rKysrLf/AABEIAJ8BPgMBIgACEQEDEQH/xAAcAAEAAwADAQEAAAAAAAAAAAAABQYHAQIECAP/xABIEAACAQMCAwUEBAgKCwAAAAAAAQIDBBEFBhIhMQcTIkFRYXGBkQgUMpIjQlJyobGywRUWJDU3U3OCw9E0VWJjdaKjs7TE0v/EABkBAQADAQEAAAAAAAAAAAAAAAACAwQBBf/EAB8RAQEAAgICAwEAAAAAAAAAAAABAgMEIRFBEiIxE//aAAwDAQACEQMRAD8A3EAAAAAAAAAAAAAAAAAAAAAAAAAAAAAAAAAAAAAAAAAAAAAAAAAAAAAAAAAAAAAAAAAAAAAAAAAAAAAAAAAAAAAAAAAAAAAAAAAAAAAAAAAAAAAAAAAAAAAAAAAAAAAAAAAAAAAAAAAAAAAAAAAAAAAAAAAAAAAAAAAAAAAAOG8Acgq2t72oadJwt/ws11UXiKftl/lkqV5vu7ry/AuFNf7Mcv5yz+osx1ZZM+zla8L48tWBjy3hfZ/0h/dh/wDJJaf2gXFCS+uwhUXs8Mv0cv0Eroyiuc3Xb3008EVoev0dapZtJeJfag+Uo/Dz965EqVWWfrXjlMp5gAQuu7rs9vVox1mvGlKabimpPKTw3yTOOpoHm06+p6nZQrWM1OnNcUZLo0/MjdU3ZZaRqcbfUa8YVZ44YNSbfHJxj0TXNpoCbAAAAAAAAAAAFXu+0LTLO6nTubuEZwk4yi4z5Si8NfZ9TvY790y/rqFteUuJ8kpNwy/RcSWQLKAAABWt7bzobOoQlfwqTdTKiqaj1jjOW2kuqAsoIZ7jo09qq/ucxpOiqrXWSUopqOF1fNL3ng2Tvm33jGp9QjUhOnjihUSziWeGSabTzh+fIC0AAAAAAAAAAAAAAAA4fQzrfO6JVK0rbTpYiuVSS6yfnBP0Xn8vfddw3r0/RatWHWMHj3vkv0tGJt5fM0aMJe6w83bcZMZ7d6FF16yhRWW3hIumj7ZjGPOHeS82/sr3J8vmROzbfvLmcvNJRXs4m+f6DV7eiqFFRp9ET27LOoz8bjzPuqjc6V3VP+UUY4/Ni0VvWNvx7tzsFhrm4eT93o/YarOKlHEuhU72j9XupRj0T5e7qV4bKt38eYxm9jeTsLqNS0lwyi8p/ufqmbNompR1XTIVqfLiXNeklya+DyZBrlBW+qzjDpnK/vJMvvZhNy0Won0VV4+MIE98lx8ocLOzO4elyMP+kBHi160S86U1/wBSJuBhf0h5cOr2rX9TP9uJleolew/XpW1atpmocpU5SnTT8mpYq0/g/F8ZehE9rnLtRtfzaH/kTOvadZVNpb2oalpq5VGp+zvYLE4P2Tj+uZ+HaTfQ1Tfen17R5hVp0JxfsdxL9QG83FxC1oSncyUYxWZSk8JJebb6FNn2r6TC54PrMnzxxKlVcPvcPNe3oVD6QGtThKjZ0W+BxdWol+M1LEE/YmpP34PXZ6btyO21Qr3Fm6rp4lWdSPeqo485KecrD8unlgDULfUqNzp/f21SM6TjxKcXxRcUubWOpH7e3XZ7kqVFotZVO7xxYjJJcfFjDklno+noZb2B6hJX9zZ1ZZg4d6l+LxKSjJr85OPyPy7L4vbnalc2U+UWqkEvXu5qdN/cy/iBquvbwsdvXKp6zcKnNx40nGb8OWs+FPHNP5Erd3tOzsZVrmSjThBzlLyUUst/I+de0Kc9ybwv6tvzhbRUf7tOpCm196c37ky7a5uL6x2GQm5ZnUhC3ftlGfBP9EJAaNoG5LXcUJvRqveKDSk1GaSbTwvElnp5Eq+hROxbS/4P2PCc1iVeUqr9zfDD/ljF/Evb6AfPGkaNR1/tdr2+qRcqcq9dtKUovwuo14otNcyzdovZhZaVtmrc6Mp05UlxOMpynGccpNeJtp88rmU6GrVtD7Trm406j304V6/4Pxc05T4n4U3yWX8CS1PeWpdo1v8AU9Mt4KLxKcaUucoqSxmcmkop4bwvT3AXvsN1mpqe1p07xuXcVOCEm8vgcIyUc+zLXuwWLcW+tP25X7vVK6VT+rhGU5pPo2op8PxwQmh6S+zjs4rzlwyrqEq02vsupwJRivVLEV7ebM47MaenXN5XuN61qMpuS4Y3ElicpZlOo4v7Xl7Fz9gGz7b3jZblbWkV1KSWXBqUJpevBJJte1cih/SF/my0/tJ/sIpm9q9noG76N3surTcElUcaMk4wnCTUorH2VOPLh/OLj9ICfeaPZyXnUk/nTQFu0S3oXXZZQhrOO4dnDvG21iKpRbeVzWMZyvQ8XZdZaXa0672jOdTxRVWpNSy+UnGKzGPJZfReZzT/AKFV/wAO/wDXK99Hz+bLvP8AWQ/YYGi7h3LabcoKesVo08/ZXNylj8mCzJ/IidC7RtN1y9VKyr4qN4jGpCUOJ+kXJJN+zOTJ9u0l2jdp056tmVLxVOHLS7qm1GnT9UvFFvHXxeprtv2f6da6tTuLS2hCdLnFQ5Qz5ScOja8mBaAAAAAAAAAAAAAELvGi7jbVeNPrwZ+61L9xjZvso8UcMyPd23JaLduVFN0ZPwy/Jz+I/T2epp0ZyfWvP52u3xnHXaFz3V3KD6ySa98c/wCf6DVLK8jdUk4vn5rzRh1ObpVFKm8NPKa8mWvTdyQqRSvPBL8pfZf70S26/l3Gfj8j+fTS7i4jb081XhFVua3f13J+bI6prFDGZ1ov45fy6kFrG4PrFN07FNJ8nLzfsS8iGGurd3I+SM1i4V1qU5Q6ZwvdFY/cansvTXpmgwjWWJS8cl6OXl8FhFZ2ZtCTqxr6rHCXOFN9W/KUl5exGhpHN2cv1i3iabL88nJhX0iv50tv7Cp+3E3UpW/ez2nvS5pzua86fdwlBKMU8qTTzz9xQ3PZvfby3Ps2VGKXecKnSfpUisr584v2SZ88afdyr6jZU6yf4GtGCz1SlcqXC15YcpfM+raNPu6Kj1wkvkjPdS7Jre83K7ujXnTzVVXu4xi48SkpPn15tN/FgVP6QdjOGq29eC8MqTp58lKEnJL4qT+6y16F2eaLrOkU69pQcozgnlVqvJ45p+Pk08pryLpr+iUNwaZKhqkOKEvg4tdJRfk0Zs+xmdvVa03UqsKb6x4Xl+9xnGMvkBcNq7V0zRtUqVNvRXewXdVMVpz4eLhlwuLk1F8ov1M97TH/ABY7ULW/ivDNKUsLq6eYT9/glE0XZGx7fZ1Kf1KVSdSpjjnN9cZwlFeFYy/V8+o35synvKzpwr1JU3Tm5KUYqTw4tOOH68n8AKD2Rbf/AIY2lfzvFzunKjn1xBty+9N/dM6heVLzb9LTVlT+uOSXPlKcIU0vhJzfxPpTamgw21oNO1t5OShnxNJOTlJycmveyrWnZdQtt5fX41pP8NKsqPAuFSlxP7Wc8m8/AC76baRsNPp0qHKNOCgvdFJL9R6H0OQ+gGD7L/pwrf21x/iDtM0KpsndNLUNB8EJz4kkvDCr+NDH5M1l4/O9hoOj9ndPS95y1GFxOUpTqS7txiorveLKz15ZLFufQqe49EqW179ma5SXWEk8xms+aYEDqV9He/ZlWnpSzKrQliHnGpFZdN+3Kx8jL+yLQdP3JOtS1yHFVWJU13k4NwxiWFGSzh4z+cjVdi7J/id3kbe5nVhUw3CcYpKS5cSa9VyfrhehC7n7JKGqai7jSK07apJ8TUVmHE+skk04N+x49gHou+zTRLVxjd0uHvJcEVK4qpzk+kVmfN+4gu3+mqWj2cYdFUkl8Kawe/R+yCnSv41tfu61zKDTiucVlNNZk5Snya8mi2722nS3fpCo3UpQcZccJxSbjJJro+qabTQELSfF2KrH+rv8Arv0fVxaXdr/AHkf+2yz7b2JPSNsXFlc3c6sK0XGL4cd0pQcXwpyfvxyWT2bD2XDZtvVhb1pVe8kpNyiljhi1jkBkvY/NaD2iSoX/hlwVKC4uXjjODS+PA8fA3y4vqVrWhC5qRjKo+GEZSSc5YbxFPq8J9Cl717MLfc999Yo1JUKz+1KKUozaSxKUeTysLmmvLOeRF6L2Qxo6nCvrt7VuHTalFeKPOLTWZOUpYTSeE10Avi1+3eodyqnjzjo8Zzw44unXw+nF4evIlCuR2so6r3veeHOccPiwqqqqHFnGONJ54c4WM+ZYwAAAAAAAAAAAHStSjWpuNVJprDTWU/gdwBT9T2Bb3Mm7KUqT9F4o/J818GQ0+zqupfg61Nr2qS/zNJBZNuU9s+XF1Xvwz227OZcX8rrrHpCP72/3Fn0fa1tpL4qEOKa/Hnzl8PJfBE2Dl2ZX9qWHH14dyOEsHIBBcAAAAAAAAAAAAAAAAAAAAAAAAAAAAAAAAAAAAAAAAAAAAAAAAAAAAAAAAAAAAAAAAAAAAAAAAAAAAAAAAAAAAAAAAAAAAAAAAAAAAAAAAAAAAAAAAAAAAAAAAAAAAAAAAAAAAAAAAAAAAAAAAAAAAAAAAAAAAAAAAAAAAAAAAAAAAAAAAAAAAAAAAAAAAAAAAAAAAAP/9k=;" parent="1" vertex="1">
          <mxGeometry x="285" y="786.5" width="147" height="73.5" as="geometry" />
        </mxCell>
        <mxCell id="oCyZnYADgW9JceBVOA9t-71" value="" style="html=1;dashed=0;whitespace=wrap;fillColor=#2875E2;strokeColor=#ffffff;points=[[0.005,0.63,0],[0.1,0.2,0],[0.9,0.2,0],[0.5,0,0],[0.995,0.63,0],[0.72,0.99,0],[0.5,1,0],[0.28,0.99,0]];shape=mxgraph.kubernetes.icon;prIcon=pod;rounded=1;" parent="1" vertex="1">
          <mxGeometry x="550.5" y="559" width="50" height="48" as="geometry" />
        </mxCell>
        <mxCell id="oCyZnYADgW9JceBVOA9t-74" value="" style="edgeStyle=segmentEdgeStyle;endArrow=classic;html=1;strokeWidth=1;" parent="1" edge="1">
          <mxGeometry width="50" height="50" relative="1" as="geometry">
            <mxPoint x="416" y="823" as="sourcePoint" />
            <mxPoint x="573" y="637.5" as="targetPoint" />
          </mxGeometry>
        </mxCell>
        <mxCell id="oCyZnYADgW9JceBVOA9t-76" value="&lt;b&gt;&lt;font style=&quot;font-size: 14px&quot;&gt;POD&lt;/font&gt;&lt;/b&gt;" style="text;html=1;strokeColor=none;fillColor=none;align=center;verticalAlign=middle;whiteSpace=wrap;rounded=0;" parent="1" vertex="1">
          <mxGeometry x="537.5" y="614" width="72.5" height="18" as="geometry" />
        </mxCell>
        <mxCell id="oCyZnYADgW9JceBVOA9t-78" value="" style="verticalLabelPosition=bottom;html=1;verticalAlign=top;align=center;strokeColor=none;shape=mxgraph.azure.github_code;pointerEvents=1;rounded=1;fillColor=#000000;" parent="1" vertex="1">
          <mxGeometry x="-120" y="711.5" width="75" height="75" as="geometry" />
        </mxCell>
        <mxCell id="oCyZnYADgW9JceBVOA9t-79" value="" style="shape=image;verticalLabelPosition=bottom;labelBackgroundColor=#ffffff;verticalAlign=top;aspect=fixed;imageAspect=0;image=data:image/png,iVBORw0KGgoAAAANSUhEUgAAAOEAAADhCAMAAAAJbSJIAAABnlBMVEX///+XzGT/0FCqqqr9Wj7TXr7/2FH/22v//Mn/0U26sZryy1v/Vj3/1EyXzWTRWMLefaaquF37ylWmqK7uaEKS0Wavr6+b02XVXsD4+Pinp6f///z///f//f/o6Ojz8/Pi4uLIyMjR0dH/YUO7u7v///Gf2Wj/6f//+f/cX8bx/83//+3a2tr//7PU6sDx99LQ77Sq2H6bzGz8bWHpdqPaaMPq7+Xs9eP/8//4/+S13o6q33P/3lL+1Fyz4Iewxpyyw6P+54Df7tHc4r74wrX8y8L619D34t/V2s7X+rbS+6rM/Z7H/ZO47YTxdVD/a07/dlr/hmj+lHv/pZD/s6Pu9Mv9vqP8ybSHvVb7TC7/lIP/uq3/8N/c9MH/iW/9m4D/4M3zYEf2y+L8zfbbesrrkuGbx2yr0oHB6J/0qevc/rv9wPLom93/8ej6z7jmbZ38r/rsgtqv0Y3kp9rrjN7kstrSbMD+3v7+zv7/xv7/ovnplLj93On8/p3+8s7w+r//8rT/7Jr75LD/8H///L3/5nT/8HH/3oH325PRybc5JN+SAAAP10lEQVR4nO2d+V8T1xqHZ0LWSo5tvSUZJismQAhkU4hJTG6TShSsFwSpCwRFpcSFXnd7762RiEj7X98zASTLZOY9Z1b64fuzGebxfc+7nG0Y5lSnOtWpTnVSNB7IVhKCfrpyZXZ2tlqtXg0Y/U7qKHAtUZubv/7zzzduFAqZDPvDd/9aELSIdXNp+dbq7EjQ6HekFZdNJlc+zl8vZTKZO54jjX73j0HrV51fEDB/uT1bDfJGvy+ZfNlsNlFPZ+6MtrAQYo/0QwdhS4N3NxaXbv1WrW5zRr83TMFspZLKZ1gB7JhMglCAHLx717p4b3W2etXklFw2l0zV04LZetikCL967c17q9Wrph2YHMfkUvl0QbCdiPUghNbzeGQura75zGlJvvaqcIDXhw5AKHgshrxXxf9hRvN0iUvmWYwmBQckbA3LwYXlqpkQ+WzqRoGVNh4JYUsL61cCZkkhldr1Ats3ttASWq2L929fNZqNEeyXKLEIyEdGiO14//a2wXxcJZVmId5JR2gdtK6vGjogc6k08sDxyAmF0Lq+apiv8hN5Qj4KQqF4XX5gjK/68uwogX9SE2ItLOuPx8frd0jGnzJC692NK/q2k7yvVvLQANISYl9dquqZHXNzOAFS8CkgxFX5ql6j0c+s1EH1i7qEVqGS0wdwRkiBdHyKCLFururQWfHJOj2fUkJdzJgskacI1QjxaFx/oC2fr0YZYdQitFo3bvu048NNIG2EUY9wcPCWZjGVT5QU8qlBiBmXtZqvqqXBTZKmhEL21wSwklHqomoRWq3rGiDyCTUA1SIcXJxVu4bz1TIq8KlGaLUu3lYX0Zci6uR1ILRu/KImIp9QUsdoQ2i98FBFwModlQBVJLxw0fZeNcCaWhZUkfDCxWmv7dG4OoQqBRlVCVuA3nePVAGspNUDVIuwBWjzeh+r4agY0GyEgwsXbRiwhTimlI/LKS62hUGMPJ7RA7UT0rIuXvS2AAXEzTGFSSNeV1KLHrIVCr9u5eeeTqzkcj5+7cGD326vLt9fWl/cOH/+PAUgjqIx26G8sU1lVvSlFAFiPJTO1+cmksncTCAY9B86RjAQuFqtVjEoxiQHnP4KaLPFYk/8CgD9CXo+YbIqXU/VEpWZvpMrXKA6u3praRE3fSSAXlubvDElmT9Jmwix8dhSqlLJQv7K1eqVW+vngYzdgELIGaO2YpwyTyB0Jz2/UvHBl6p91V/uL0IiTw+gwEgdbaLzo1R8LFu4XpvhGZL/WT8fXF1akAXcOEwTnYo9uUQFOP6Uykfx8KtXqP5PueqStBkHF771igDavNPPqP5gLU0+rYbY0a1UlMh6Hdpe3pDIHxcuigJixMcU5Zs/Tp7qESr8+tTnVzBNxPke9GcUG4NH0eY5sZ/6+Rp5LeNB9QnFben2lXVxxP6Agp8+IvUbPkkcRxHK10DZQU7V1Zsi+VEKECO+IazB/TOkPoqLF3X4sPgHtza6EaUBsZ9uhsj+xlyBLMx47pSSKq4LBX672RlFF6UBBT99QjJA/L4CkQVxhVbKqccnqLrUXuUsXPTGJAEFRKKGn8xHEZtJqb7Mzl05LgAWvj0rbUGB0Puc4Olxoo4CsXmVDXigB0dBFbdLAHlt8D6Kz5MMQlzDxJU0MP21du88IMi0GRH6Gr4JAj48ButxTfiwtu/hMg4IiDX9O3Ao5khM6GHrUa0AcWO1NAgHtEH7/SBJX48BNVySFQrVf4MBsRHfgjJWpQQ3oYed0xSQYULPxfolcUEnbQjWKHCQ0Xyj0qVNOKLNBpjR8GfhoxBp7KIHGnvcp2cSUQzSY1TAJsRRVMMgcyyMCPbTaXk3jdfBPurRJtH36j0B4jNZI66Al2FQWidAjDgNJnwp1+3PzIMB2ZRu2yHHX4OHoveFzFslbgDjDGK39KFryf8OGlBjL2Va4evQOOMp6BJljjQ2DUT02l5IPgjcF3oyEzqxHep3aGnjfSlZfyc8MCdFaE7nY7zjT4BDMTYtGWvyQCdFr9SakwHr/SbUTSU6YY6HArIV/dCO9Ag6Eh+P9w2nfAI2eYE8dd1NiIPNJsxPJedOXwEJMwkdyb7q2TsYoe11X0IfbBYYFbRumcR16YXcfNshYt+BGKjBcgXa0q1c69R7oBFfPuqzdJID7koo1AwxITbiE5ARvdOv+5TfuS0IIEJbBgFiRJiXevu0+uMwJ0Uopc3cIUDcc1g4ffleNF8EUwWIj7LIuNPy3BgwX7wVfcVsHjIMEZvXm6tdjyFp3zstPpkB26nuKRiSCw/FvY1BCG3i290SkOM+CN0w9CaASy9BhDExQtgGL09mTneqdl0CTZ96Y2JtcLYOctKSATV3m/xvQUYU3WGT3YIQopRhybAlfgzSRHm9YqEmCwk0KLNi8F0V468Bbur1PhYjBKX7Et12J/U0/ghQnOJ/0UvIr0DmLzwpXeefRMS9fwPJ+md7CP3X5iGEyMhkeKjXZyGEve1FErKmhjLGRtKW3kLyRexFqPt3kD1QyLNlwOxFtx5CukTvZk9GTELWKwyZn+kS//4xoEsUOYmxAplm8+i3VNFfl55DCN/1EgIObyFUMwKpWyDC3mNfH0GBxgShlGEgs99eW8/M91MAoWfLBKGUYZ5BljDO/t71q9B1CGHe+ECD9egdwE1j/+n61TUI4agJQinWQ0gwjXWvlEII0WjdFPfG/vEGRDjT+SvQNqFRvZfUxBXahBD+N9T5KxBh4alh84jtAhJOdv4KRqjzum8fzUDWL2JvuggTJ4gwCCP8o/NXCcgBGZMQ8iDC7j0ZkCNAyCSEzIvYWXl1bx06UYQPvwXof11eCjrGZRbCKcv3srI4nJ0/OknjkJm67JbVZTrCj6bIh5jQIit7DyEs46t0D4Uy+T/QEMIy/pwpLhMPaElojrqUivAk9RZ0hJMnqD9cK9spCAOQKW9P3hSzGA0HDSE3ByFMm4LQSUXIfATcLmCSubadIhUhZL6UZU0xX9osujQj9KQMQepSE2BCEULIugXyGLzGLcgf3ackhKw9IRNMmHKgUCpGCLibFJli/bBRdFMRZiEJ0ZD93d36ZAEEGhFCrgZaxzdBuvgTAihCyFRAhPNZgz//Ekzu0RJmAYAsShu9n8a3A8mG4oSgHUNszWDCaBMEKEoIuikCu6kRXMdK7tITgvaxG7u9VHDSPUiuECVkaqD9pey8AVzHiu6CcoU4IexIELphZJ/PNb7ATChKCLvG01MwtL9o2hUQ4oEIsSGbNgDsSHwR6KSihMEU8LxFzrB5Yb/TDQQUJWSSQMJX+qMdyucA8vUhhJ0KYlEmZ9DEcNAJHIT9CGEZkWVHjdpGmwN19xKEHMxNcXGaNGQkjn8uggHFCRke5qbsqHb3JkkpVwbMdUsTgk/JskaUbvwONFP0J/RBb4M0ZIMbbH5GmtDPgC82SejeCEdhvb2Ml8JvHCjpbUQe2PnKEPoTwAshEZrTuRNO7sJzoRSh7wbQTVFG3z1u0V0XkQn7eikD/qgaKug6sQhaqwARVn4G38BT0ui2RBFxSTI8KUL+I/SDK8ij31nLeJnQRyUIQesXh8pM6LNO448T1KPyhMEU/Ma9tPKbnyGKNgnqUXlC4Ug3HHFFB0DoHDCYMAq/kg7pcgeI8wwFoBQhQ/DtI4yoeZfRoAKUJMzm4Z9EQJ7STN8HqSKngwpQknAcbkTkSf8Y1nRK47ODpGUCEgpfz4E6afqfQ8MaIvJOh4U8UcgTBkGnLQVCDDg0NBDRCjGKgwydBWUIGR5mRA8GHBAUCWjB6M8SF6NgQiYKGIktFx04UGQS/EUZsLikEkA5Qkb+jgwM+OPQEeFAJKw2IOMs2xUAyhLOyF43hDI/DnwFHBgYGlZ5SWrqDGWIARLycndG4TRxbqBDw+GAap7KN2DbERQQ4tpNaigKeXBooFthlczIxae+UGZBAkImJ7FHChdrbWPwq6MORSbVYOQbTYeiIQgkFL7/29dFxQBbnhoZUeqp/vinPeokSETI+F7181MBUIzvYDROKhmO42vOpmIHhRJiPxWtwMXHYJuv4uFI56x+X/Jz0wFeA1VO6K+xIqUNwmlC3EXbxmMIl36kfBwf/bxfvKwsR5ARMqG53rwvJPpzkoAtxmHSWpVncvvfu5UHGDJCPBS7CQUXlcE7GpBD4RAHq+U4X7SBKzT16OCE/mjXxBuSCjI9loyERyYxIieB6ed90fhPzd0vdnXiCykhw3SWNuJ5UMJXB8KhydBR49FOevT1uahzp1n+UrS4VbYgnHCmYwcKIrDgISX21sjIyMhkKBQ4ziLYbrlGo/Hp06fmHqZTKXrSEfrbdy+QuGiHhodxfI2Ewxh15K8mVrlcdjiKRYtLfduREra+d4EgeVDGlkc69w1OCC25taMjI2Ry+VZa7OwHqXXuG7rJQS0JmYkSLt+EIDOgHNCchEwyj1qAasichNhRyaPoySJkcnU1xqCZCZlsWB1A8xIyQZUQzUvIMGFV/NTEhBwz8vfNFocKjvxdM/5XBUKRYTMQgip1KkIh3ihFVE7ospQh08WUhEwgbDQhBkx+oDqtDhSnEFEpocteTvqntCTEWcNIQpdlJ8owGhMyzJCCmKqI0O12tHa3aE0YZBSkDSWE9mIz3przobpFiUyTEf0JXRbHzuHmHc29FMebQHiYzoy0hC53sdk4msr6/L38M+yOhhJCekZKQrtl13l8UMcJWB+2764pIxQYIxSMVIR2S7HZvoGuAbhkyL472ffVwZqkSBwUhC6L+8tUxx8OAAai/YMaq7VcaGiAsIyjITwz1b13Lif/DJeiQNOmkQhZWCUldF127PSelIvLbudznUmqA8gJmSNCMBzJCDHfVE5kZcc3JXf4wt1UbVsoh/tGAjOSELpcjqYzKnogIC67L7qh5iatYDAA7qrAhG63ZX+n0W/zKr8jvZjq3lf7EGgwEBoahtRyMEK73eKYasQljgLEy5clnuOyNNTfYx/igiPCCoxiQpfd7iruTjml9x5zSYltby57U5NzvFwohEekjLvKEbrcluLe7tQ12eM4wZW+nT5ukrXbfR4QssewBKUUocvlshQd+5+ABWXD0W95rqnteSVuMhyODPWDFCfEbDj82/f2/xRJfn3V2L/cu/rvchX/1PgojxClQyOYUhSzi9B1YDmL/fKXvf2mM86TvByfEzbAuTqfZ9/TZgx2SsjRgRHssEM90wHdhNh4drvdsb/jTObiHKFz+aPOfXt7wHHZi2WnXpcFcEEO50lhXA61D0xMeHxfc2vYNZvORjxO++XPeKPpcB08DGdQx04jrvMBZQ4reKBAaHISO+9f++Vy+QPW1OfGdhQrrvBIii+63fj8QXiocztq4KWHXCAUCgWCQc6XS+bW1mZCITX39wdncsl4yOB71k51qlOd6lQnWP8HMFkAOWn7+TYAAAAASUVORK5CYII=;strokeWidth=3;" parent="1" vertex="1">
          <mxGeometry x="-175.5" y="373.5" width="46.5" height="46.5" as="geometry" />
        </mxCell>
        <mxCell id="oCyZnYADgW9JceBVOA9t-80" value="" style="shape=image;verticalLabelPosition=bottom;labelBackgroundColor=#ffffff;verticalAlign=top;aspect=fixed;imageAspect=0;image=data:image/png,iVBORw0KGgoAAAANSUhEUgAAAXQAAACICAMAAADAmuC3AAAAqFBMVEX///8bFxsAAAAZFRkWERYQChADAANOm81cWVwJAAkYExjw8PBJmcy5uLn6+vrh4eE6NzohHSHp6enT0tOioaJkYmRCP0JSUFJDlsuRj5GIh4h0c3TIx8g2MzbCwcImIiZta23u9fqtrK0tKi2mpaaOjY7Y19jU5vJKR0p7eXuCgYKy0eeCttpdo9HJ3++exuJtq9Xi7vaUweCtzubZ6POJvN1oqNPL4O+ahOL/AAAOPklEQVR4nO1caWOivBbWkKiAoIIL7riU6qit3f//P7vnJCQEtNpO6fS9M3k+FbKQPDk5W2IrFQMDAwMDAwMDAwMDAwMDAwMDAwMDAwMDAwMDAwMDAwMDAwMDA4NvxOLhp0fwD2J3uPvpIfzdWLzsnv3Cq0MU7Y2wfyMeoqh+fFrk3t2+NpuHtx8a0L+Ap6hZb0bNl9v8W3h3/0Mj+gew2B3rTUD9mKP99tCM9ov3Ghl8GYvdnov7q65RFvsoOhjF/kXcvh6P+8enu+eF7xfL/IdHFPe6Ltv+PSj25z85wr8QdxFqkQhwON7vTth8vudK5l5bkCd4cVusZ/AZIOn1Zh0BhrP++vhWUNkPL0i7rmPuoL5xYr6C2+N+f6ijpDe5KmlGh5ddnve3fQSvH7OXwHrTaJivABSH7y9ud/f7VyAfZB6oPzzmbeXuALS/Zjzf1psHo2FKgf/w9nSMuLqJ6nkP/WGPr3fqGTWM8RxLAziKINYo7sc7ndYdvnpU9vQtah4N6yXi4ekgxD0XGD2/Rs3oRRF9H0X7Hxjb34y3fZ1r95yH/gILkYn3Y2QyAmXjGcPRenTI9DjERZGWBPBfm3XjwpSN52MTaT9qjswOVb1k/eHQPJwEsQZfhL/DcCmXzd2hrPvZg1Ew5cO/R9UeZU4LyHo9M6CPzch469+AN/Qf9WzuU1RXBnRxaB5/Zlh/Ox55biYzmTrrd1H09DOj+m9jOAZ4X+lhh7GSFvW/RJlWOZrA9BwGxLbJzZe6eD6gYlc3Afx9synPMZ5B4X+p778TDVatkuHX+njguV/lxCwgapK6/MWcI51BGaRXFkdUMUrWb+tNqcsfmkbUT1EK6ZXFHmVdWVO8K5A+POoxq4FAOaTjgXS9mWmSo1Iwxo6eQUmkVxaverrrGRSMuWP3LsoiHVMt9ehFPoGCeTVC/h5KIx3NZ72pYqF63WR230V5pFfu8GDjWT2YuOhdlEh65T7K1DqGSP+IqAfBZ1uUSboPUb9SKm/gNn5LXOQHQTjzwiBwi9l6LPE8KHIL7wVUpVZQrIGvw2E8aAM28TLwTxqLN26QeJ6vNVrH/elq1W78Ck96vACNdByOl7y3br7rnl6sKwBDUy3v8i1afRmvCAftj9ctrcBdbtuihPS3GjOV1pgjnsHfwNLUJqTaWOem6S7jOSGMUQCzCYtDWeIPY954iB3OBjXoXbVMxlViU+pAG0I2XY12P5wAcp8Qr0SdjHRvLGYzvZmczNSfDbeNTW/cPS3KYYcKJp0vqPjyT45mfdumVhVhUZvM1XiCYUcrqdmrpfp2wmwEzNLvdmpYybIYoTfZ4NZz23aqGSybjeTG6BHeeOBW3J7NoK0kPRg7tpW1YWSa5Q3dhu1Q0tVHHrSZ4xBRRZIe4mzEiGGhdQmC+t0VIzZjIAO0710iEjR5PUpD0AVESGVHo0PCtHlW6UoKU9gnjl4Cs+jJsmTOCa3dAIFUVXJIrLrdEr0tb09G6YzGNqd04Lo9XkuSPumLR1xRxrtltkocug1mWUXSKbzKkb5kuIiOZYkvtnXWYUIUxKpWg4UGEdleYv0Zk+tpBfDV9+WK+rhADmukBWvKqkXa7FW6DZIVJ53Fg1xzxSvMkBRbVyVl/paTTvtBTNICTvrMYfyhM4jHca9PxNM4na+LtNaKpAPTOukeSDlI+HTOiBjgKlG1cUIW6cej0bbB/xxcshmP2RnGomxT6knSLMooCrb0AGaEKgHOZJmtxEBbU1FKVaW0KpPKyYXOUFsh5FaicyHRv1LSPSJXA98nHYZ/kq4woK1ZA4dg1dJ1/ADpbNtnDlktJ0k4GXb4zOyBrDypwXrUhnwE/qxPoOdfF4hBW3pI3cZ9MypTv7irlDVG+4PNyiYWEaKROJJOSjpTpjStPeCC12oX2Far0k97Bh3CapvxaLlcdnuS9XRFRzVO9WrqaKS7U875UNvIk76Nr9ZiqNdJBxmg87UcwJCzLoUIJ0TnSu79Bsr67AI1T5nbCAHS66epfR8TIrlKAvDdwhHpCGFs2JLl+TppwXsq+eGTavUz0sHNIGpRLCK16Jo0pK/hS5FmGy7EN6lWccQWoxRJH8JKOHaOVPgMDIO2eTcfIR02pXZix1mn6d7s2VXH0QpxrypVeg4LvK4u/sR0TIn6RZi0qjOVVPkTLmmeZNFuCMkLV4p1nIRGur3pet2x0kDK1LUS7Tu/amkp/84w0/eWTdr9Pqx0ggyRZWF87gZVNVcDHyG9ILsjokQdJ5Q/zVuDgqGXRB21epqC2Zfqv/SEsQSblnvtx6mg075cjaUkiot6oEgnPVcUy1XanvtOmC6iICUjnZI4bLVaiV/ZwrKQ8WlDYqXr/BHS7V6usYuDYpuKcJhEN7nCiyHsM57WCZF7KvUWaSP1UOz8kW5LUqi5aJu0KkPZV5LO5DRvbKlB8uvnglHzhttqSjq3iop0upJr6sJup9O8W82BRpeP4gOkW9VCzIMfslCRBzAhO7+k/ga+2L/kCuJFUnFguni8KzHpJSXaIrF+fSET60w41uk7Ok0yQ5pt0DA1lrlN4663g5Wu88XERzWpW9T2noF+OrtJwo4lVvYDpJ9wOKk64PV76KSpigpbFP5LpN9BWPpyofx3odgFc7j6FcohZNolqzrpOClTk4x0OlWjTouduRLXZAxss1yAJTaGJN2OVe9dZOVsbA47jCu5j7iMRcMYbKjQhzAhZz5xc8BogSSVC8AMzKXy30SwyrwQ8A17aX5kILWOJnuB9BJxlor0bFWk7DuS9OG8VgxKC6QT6d4JnWufFTvQL1Yn/BjpcbFxnCYHYOWszmaQw9R6b50lXrS0V5nw9IgSYuOYK4eN5FczNL5U6ugEnCE9XShJutsgZ1z5Aulqyj60dlZnSedexuQ3SUdpBslxsSKEfzlY1Wuk34JS/5aLF8McN5a9aQmrVhDFSib+uBLXSR8rxQVxqS2jowLpWeIRWrPBWdK9r5COXwLSAz4h6xSXSV+81r/pF0deNacF7KkrBIOzos9x8BlJX6c7CDZPZzMe91Lv5RLp9LykL79COsYHYLwF6Z1TZCM4C9Av3/QrjCSmeqIRBbl/Rr24fU38r5Hup3vFsgcenoyE10hHS0fPkg6VneoHSe8VG4+Fw4mkO6tJcIrL2cNdVC8166Jj0t0QlfymczczpHFWqZXaXL4lr5Gephcslvr/oXWZdO5Rnxe7T3gv9klwhcEfCIkg/aKnchYP3+Q0CrhhvJKZXJi7dBmdTlZllkb6zjy8Tnoa9ivRu0q6B3utNqqcAjP3mZ9+kk+/TDrGcDyUQO+FXjktOge87vX5Vh9HMs0UeRYcZTHiSE9aXSM9TS8ojkJ6hfTgvYgUk2O8Gx/7rOUi59bcuuynY8TGA4feyYJ9DHhC/a0/8prZKlQPVASpUs6BTGnxLPQ10tP0gvJ+VJrxPdL55jqT4E6ozL0I9y/WKUh4QkuLSKeFw2hswjCjjrEXT8J8Eo9AeumW1NfSbFIaQSJUwsuqygpbJfyoGj9KuhRMuYveJz3hma1i1k9kGYXWQJnP08qVmJ57YXlhDlTmkieTLvuHZ4GWtPS7jAHZrKUFv9FClomUa1rluV73Rsk+p+0a6eJADjjitAZx2vUF0nlmi67yrAfYKU0toKfJNUfCXaLcIUY1p6DGtjzz5VLELp7PncVtpN2wKwseYcTp3ayXy7U8LKUdHFpPJQJZb70cqqNQp8OJuka6NAps2p153bY8EblEeoCWnJKufnK04aKc+q0u9qnpCFd8UVcvNJfjHKLkpJp8gk5xLf4sP5jeLT0mRVmA+KWGVyJSXkSWN5hKZwaKbaIeUi191U/vpPqE1ijTYt4LpFcmeEJo2fMlv7bkg0PFsEumXBKRMv+VimuwsfnRU0Y6HbQpm8qsXYvfR1BnpHgGbpGG7jb6Z+x2AQ+v3+AzyoDHyo6e08PjUBFdrapCi6QZsKsRaTfLAmBrKrPtF0iH7cEzJKTTGw2H443IB9O+0gkzZNEiPS+ouAlsH6vazrwXmAkZQg3G4mUSJN7NlJ9gTCXLwRSHYFdHnujPDbtjelXdLI71sq9fgBNczAPaapRhphQkaE1GqFdJ93tEa8j6I9EZdyXeI70y48RUHVYjRN1yUqa84gtjziCOcxiUk+HSVkd84M7DLlzbjoV3ZphdwwHWtHsvrT5+1bFhrTabFfQAG/jSaR0HXjQqO/uyzF80goEMslEGjVwpqJm5smItvOYDYO8mvFoDdZZNCWmBI5HVH5E03VQMQaER066FiftG2SfcubiMZOFtIgq7jp98CoU3p/xaTRdCa943H/BA1ybJQNykcRzGqIU3RMi5aCwHvOlV9o8C3O7AEecMFt4dnPfyhyuTRjXlHRX7RrsdAaQ7CJ10whOmti0nOmwTLnNkdQPbmPD6dIo7eiQenDNx/6xhpZ8ECZh2uHuSBURBLJWeReZdVDiMpXZ2RR1Of9ijBO9PwnQaxWhoPcjECEWhfT1cevmO/4nphut404HtPB3czJKTO7tJd8DE/dFR7u6mn4QCmSiNGj0BVa/ljRur3nbGRV82wE+0Qu3h5JPDDf9itee1eH6YakkTf9lPL7T+wl4T+GZDqBfsTlwkCruN+Xw1GE5ONbbr9YhEezS5bkgru/3+5Ud+E+B/2r39MhKxcu4cVZSdj+4TvLr9+127rdms1frzU/r/gUjLF4+UDb4XPfRn0jteBn8IobgGetXNMCgTeMWxeupcGnwn+PEmK+snXAYfA4T2pH81dDQoFX5MtsaO/mm0jMNoYGBgYGBgYGBgYGBgYGBgYGBgYGBgYGBgYGBgYGBgYGBgYGBgYGBgYGBgYGBgYGBgYGBgYPBR/A8NWAsV7swkJQAAAABJRU5ErkJggg==;strokeWidth=3;" parent="1" vertex="1">
          <mxGeometry x="-232.91" y="437.25" width="125.82" height="46" as="geometry" />
        </mxCell>
        <mxCell id="oCyZnYADgW9JceBVOA9t-82" value="" style="shape=mxgraph.cisco.people.androgenous_person;html=1;pointerEvents=1;dashed=0;fillColor=#036897;strokeColor=#ffffff;strokeWidth=2;verticalLabelPosition=bottom;verticalAlign=top;align=center;outlineConnect=0;rounded=1;" parent="1" vertex="1">
          <mxGeometry x="-280" y="708" width="69" height="82" as="geometry" />
        </mxCell>
        <mxCell id="oCyZnYADgW9JceBVOA9t-83" value="&lt;b&gt;DEVOPS&lt;/b&gt;" style="text;html=1;strokeColor=none;fillColor=none;align=center;verticalAlign=middle;whiteSpace=wrap;rounded=0;" parent="1" vertex="1">
          <mxGeometry x="-284.25" y="790.5" width="77.5" height="20" as="geometry" />
        </mxCell>
        <mxCell id="oCyZnYADgW9JceBVOA9t-84" value="&lt;b&gt;GIT&lt;/b&gt;" style="text;html=1;strokeColor=none;fillColor=none;align=center;verticalAlign=middle;whiteSpace=wrap;rounded=0;" parent="1" vertex="1">
          <mxGeometry x="-122.5" y="790.5" width="77.5" height="20" as="geometry" />
        </mxCell>
        <mxCell id="oCyZnYADgW9JceBVOA9t-85" value="" style="endArrow=classic;html=1;strokeWidth=3;" parent="1" edge="1">
          <mxGeometry width="50" height="50" relative="1" as="geometry">
            <mxPoint x="-206.75" y="760" as="sourcePoint" />
            <mxPoint x="-126.75" y="760" as="targetPoint" />
          </mxGeometry>
        </mxCell>
        <mxCell id="oCyZnYADgW9JceBVOA9t-86" value="commit" style="text;html=1;strokeColor=none;fillColor=none;align=center;verticalAlign=middle;whiteSpace=wrap;rounded=0;" parent="1" vertex="1">
          <mxGeometry x="-190" y="730.5" width="40" height="20" as="geometry" />
        </mxCell>
        <mxCell id="oCyZnYADgW9JceBVOA9t-88" value="" style="endArrow=classic;html=1;strokeWidth=3;" parent="1" edge="1">
          <mxGeometry width="50" height="50" relative="1" as="geometry">
            <mxPoint x="-5" y="412" as="sourcePoint" />
            <mxPoint x="-100" y="412" as="targetPoint" />
          </mxGeometry>
        </mxCell>
        <mxCell id="oCyZnYADgW9JceBVOA9t-89" value="" style="endArrow=classic;html=1;strokeWidth=3;" parent="1" edge="1">
          <mxGeometry width="50" height="50" relative="1" as="geometry">
            <mxPoint x="-5" y="466.5" as="sourcePoint" />
            <mxPoint x="-100" y="467" as="targetPoint" />
          </mxGeometry>
        </mxCell>
        <mxCell id="oCyZnYADgW9JceBVOA9t-90" value="repost" style="text;html=1;strokeColor=none;fillColor=none;align=center;verticalAlign=middle;whiteSpace=wrap;rounded=0;" parent="1" vertex="1">
          <mxGeometry x="-70" y="383.5" width="40" height="20" as="geometry" />
        </mxCell>
        <mxCell id="oCyZnYADgW9JceBVOA9t-91" value="scan" style="text;html=1;strokeColor=none;fillColor=none;align=center;verticalAlign=middle;whiteSpace=wrap;rounded=0;" parent="1" vertex="1">
          <mxGeometry x="-70" y="437.25" width="40" height="20" as="geometry" />
        </mxCell>
        <mxCell id="oCyZnYADgW9JceBVOA9t-92" value="" style="endArrow=classic;html=1;strokeWidth=3;" parent="1" edge="1">
          <mxGeometry width="50" height="50" relative="1" as="geometry">
            <mxPoint x="-48.36" y="703.5" as="sourcePoint" />
            <mxPoint x="51.64" y="566" as="targetPoint" />
          </mxGeometry>
        </mxCell>
        <mxCell id="oCyZnYADgW9JceBVOA9t-93" value="" style="shape=image;verticalLabelPosition=bottom;labelBackgroundColor=#ffffff;verticalAlign=top;aspect=fixed;imageAspect=0;image=data:image/png,iVBORw0KGgoAAAANSUhEUgAAATYAAACiCAMAAAD84hF6AAAAxlBMVEX///9kVKMpHlRiUqJeTaBZR55gT6FcSp/19PldTKBbSZ9nV6UAAETi4eXW0+VXRJ3r6fN6ba9zZawtIVuJfrcjGE+cksPLx9739vpSRoG2r9Li3+1UQJvb2OhpWqZvYKmAc7PBu9mknMavqM0kFlSGerbu7PWPhLuimcaqo8u9t9bJxN1+cbKSibzCvtPIxNaBeaEOAEZhWoAZB0tSSni3tMatqMRoX49ybod0bJV/e5QAAEB3cZEAADmoosFDN3FFLZVOOJmtTomMAAAIpklEQVR4nO2de5vqthGHcSVLljnxLcQ4NmDAZ7GB46RJ2iZt0yb5/l+quvjCLgZ2zab2onn/WG6GR/t7JI1GMyNPJgAAAAAAAADwenZfXeS7777/aujmjZPor19/lnzq4AfOjyBcBz/+8M1frvLT36yh2zg+/v7pumicT/8YupHj4+fPN2X7/MvQjRwf394YoiBbJ/+83dt++tfQjRwf3//79ty2HLqRI+TXT99c5fN/wCJ08d/fvn7Jtyf8Oh+6gQAATJwybClnJ6y9ods2Yg4uacEnz8kCZLvMxjYu4IJsl3FMkK0HIFsvQLZegGy9ANl6AbL1AmTrBcjWC5CtFyBbLy7LZjpDt23EXJENNikvA7L1AmTrBcjWC5CtFyBbL0C2Xswvborbm6HbNmJm5JJs5Gnoto0Xb3pJNe5dJUO3brTE7LJsbDt060ZLgC7LZhjR0M0bKQ6+phoYhQvkV2UDo9CNha+OUTAK3VwzCAIMRqGL1fXOZqAV1CWc49DrqoFR6CS/6CHUkNnQbRwflts9MjFrLAViYBRecugao4j5+3gb1B+x/dCtHB1+h0FALBOugVVUGyMoAKPwnGTRZQPi6tNt1d/M46CNHB9Fh4dw4hekCIxCB1GXh2C3fataCiMCRuGUYz17IUIaAemu+TyxwSh0sCaVan74ZNQLuFW7VRTVsqawfdSSuJUooobP88m5bHVshoFRaNkz1dfUzGUp7xShVrZdHZsBo9ASTdGziauq6jgJ8m3qFW8tLcBFUUOwzWFTZoGUzRXtYhhiCg0qzodIMyiroIJbT2SHNuyM0oEaOTqSWpTmnS/omVewsU9WdRTi84ptta27aDzOOl6KWH5cHtenqkFMocKqt3VpPSa9dhOJUEyfb8QhDGm8gqYaEgXV5HY5p0GAs2HbOxJakXApdcuux2LQdOgWj4HkxItnT4flJmc3YjE2GIUXfYtQk96OKYBRmFjXEz86gdqOyfxiAuVlGBiF23G+c5Bx+3cfG+9cErFViVkFIQTxt15cpH0m756eCEawjdE0XT+VRazIwnLmr6aE2kK9BpIP3e5hiWqDgDBlxro4OklHTM9KnE3oI9Ya2YXekT+V+ME7U1rMb22kRctjaVAlHY1vXPzYSA+B5Mfd7UsV3nEm1nl6bx95YsI62Y18FbHooa7O9aVCAUTeeHaiRZFwX/+cFn0IRLCdrN/6rZCPbGS+elw/HHMxTZlvTvaT+SIaG4VSdJv07WsJsWpB/p/QoA+BJQJUfSJRMvxn62oUDqxvMowr5sTw3Rv0MZAGoVeUXaZ1TfU0CksRQ7B75XTIEKGmRkGuI4J+GUQiQwn5OmYfRSL62Tdf7SiNgo5njIvUcER7bm9HIraKdTQKIhum/76ZjORraBTkUr//Lq0n1nz24T1b9CEQawi06j+pz4iWnoIwCPcsIeQGJ9XNKEj/6K6t7aDHVt2Hx7/bPZK7lVO9As0yNfy+HVp5aAjVyyhIg3DnhC63nYL3ac/HQK5W701JcMTSjem0fXQUrrh5pxncrXQzCjLxY3Hnj0TCrKDVuzToQ6Cydd17f+ZJTG5Yn6WbSmm+WzaZhq9RaqU6FHBx53aZSijUaLNSyXZvP5GWVKcUwaUcpPcW65WyTlyjM1UslXh63znhjqpn02jhVmW1odUdHmVS1c5MNcp0y1QOJZn2Lg51pipFUKuN8V1VfIYW/Sb0qHCrH8BaVeUe6mI0iuI3j7Jku6hLQGx97KgkbMoRmLne3O4yVoXnFKnZHLViapf6XCyazG9CGQn8FtIBrmkP2DKQXQz9X/z/OaKTkjT0atqv0Kk+ftUJVmHequW7CCLmdK9jLoNgt/dN9qxOwzgreOnoi4SZeLbRaL12RpRks4C5JxjTc9LgGU/bo86aVVg774SddcbLt4ZuMAAAAAAAAAAAAAAAFVG21yur9H3ITZqKEo0sDKvYilWE4Ss2cflVeqWjniKSLF2ReOVTWmWoei52XxGdIszUKT/wBTOTytsL+Qit1TseNdgrcoo0izO/IIr3Mvb3pZFt9zrZpo8tW1iWshQymZW5wx9y/hAdwzJTRWd8TiuiiZOvEFqVJX8az5CB/DJX4zSab8syq4Oq4lUYCxNyzEXOeJk/7AHQKaMyPctZEJfP9AkjNFy7GFMk5/2SssCabOQNThhdRZNSVDgjpsLIS99lGDMzlCErT76iJNxNMldeZT9sCVaKVFabY8qswCVGBmaYYAPJO/TlRNwl55iK40794CmaFOLpyg/ECDxighil/I8oRoh8bOApogRbk0OK5FUPG6MPkCohrWRLEJdttkwKpuamkKibC52YBFafs7sz+MjdO/MZNuhe/AKazr1kk8qZz0APPbcFZ71N1cIESGbK5+eyNSYho8ZKTmszYjBxGxQk07wiOWIf3JK+GKS8t6lq+QLLxPGO3tbIxt8LMk6cE1EamDBk2E2Q+cFlezFIeW9TubdbLKs7rvU2vhRG6rhKdYJs4RJEqFtK4R5fNnnWcNvbnsl2rbdx2cii4ncxPJ31gvKp0RRfeHzZ1uJxY7+5t/noLLXcildE3XrtwWVbE3moUfQFdfc23MjGFxliCbxTgvBBmdnVHSYSlRuuXHcfYZHkpk7MftiDGrg5RKssTomq5liS7t4WYoPke3Fug6hHI0W5UAsQHM7nIZX5upmbxkvPSZEsg1kTg5QFetRk+x0XDIlDiI3O3lZWvW25EIfwYnEaT8w9AMJ9iclkbgsbwP+wKR+fBkWMi4sIEn1sbsovPOwZ7UlqYmwGsUsWR3E6FHblYCtM8gd/yG2m7qW5MSnhXpR4Gi4Yd6GEuMsv0p2yc+GHegW2Gfe0VqrCLzb5Ve7j3qou2hTFJkrKsOT/rxeGpRxYG/6EP8RhuFU5kl4W7iuf3dkWcbXn62Rhcahd+d1hG7aZbst9mGmVbA8AAAAAAAAAwOj4H14xl//BLxsZAAAAAElFTkSuQmCC;" parent="1" vertex="1">
          <mxGeometry x="-221.14000000000001" y="487" width="137.78" height="72" as="geometry" />
        </mxCell>
        <mxCell id="oCyZnYADgW9JceBVOA9t-95" value="" style="endArrow=classic;html=1;strokeWidth=3;" parent="1" edge="1">
          <mxGeometry width="50" height="50" relative="1" as="geometry">
            <mxPoint y="522" as="sourcePoint" />
            <mxPoint x="-95.75" y="522" as="targetPoint" />
          </mxGeometry>
        </mxCell>
        <mxCell id="WqEL0ySqIm0HVowMZsN5-1" value="" style="shape=image;verticalLabelPosition=bottom;labelBackgroundColor=#ffffff;verticalAlign=top;aspect=fixed;imageAspect=0;image=https://www.jenkins.io/images/logos/jenkins-x/jenkins-x.png;" vertex="1" parent="1">
          <mxGeometry x="-0.370000000000001" y="1025.5" width="158.28" height="195.5" as="geometry" />
        </mxCell>
        <mxCell id="WqEL0ySqIm0HVowMZsN5-3" value="&lt;b&gt;&lt;font style=&quot;font-size: 14px&quot;&gt;REGISTRY&lt;/font&gt;&lt;/b&gt;" style="text;html=1;strokeColor=none;fillColor=none;align=center;verticalAlign=middle;whiteSpace=wrap;rounded=0;" vertex="1" parent="1">
          <mxGeometry x="254.25" y="1192" width="80" height="20" as="geometry" />
        </mxCell>
        <mxCell id="WqEL0ySqIm0HVowMZsN5-4" value="" style="shape=image;verticalLabelPosition=bottom;labelBackgroundColor=#ffffff;verticalAlign=top;aspect=fixed;imageAspect=0;image=data:image/png,iVBORw0KGgoAAAANSUhEUgAAANEAAADxCAMAAABiSKLrAAAAq1BMVEX///8PFokAAIMAAIGoqtALE4gAAIbc3ekAAIIAAH6usNMKEojKy+IADIfv7/kIEIiSlcWztNQvNJWPksXX2eu7vdpjZ69eYq4WHo5zdrTExt8iKJDy8/kyOZr3+PtKTp5naahRVKHl5vObnstSVajR0uc4PJhpbLBDSaMoLpQwNJMVHZA9QZtBRJmGicB5fLWgo81wc7R/gbWnqMseJJAAAHWHisNOUZ1na7ODxT0lAAAOOElEQVR4nO1dDXeiOhOWYCKKIVpF/KC44Kq1tWq73vvu//9lL2qtZBJRSKh6D8/p2T2n2mSefEwmk0mmUvkpOJvff4fBj1VXPLpjk1ro07+1HNoQLYgRAw1uLYg2DJCxhzW8tSSaMMT4wIiOnVvLogXBgBhfIO1bC6MFNYaPjKzwP6HvWsj4hhXdWhodeGInRqhza2k0oIvwiREd31ocDdiQEyGDPXVvLY86PpOMMH18bed7NMHIQH9uLZAyaknFEK9I64fX312Kk4zo74c3V5tWkpDBRg9vCG0Qx8ggD89oBRiZD281fBDAqHlriVTh8fPIsBq3lkgVL5RnhDa3lkgVzwwwmtxaIlU83SEjNeWkmZG6pgzWBJGXdv6CNI667mYRC6OqWVoWjg1ma7HJa45p0wzRilrx/p4RN2cBB3SZfTBeSD/nxsYDjPJq7wYlBwORLpUsw7Z5lIT28w2XuZYV1l+T79GLlOyozsmGYfk2AlqsoGhMTha8qbQNTsqDUS9H6zR4RjiPpdqcJTtajVGLkwd52cXRsJuYjjgp1GzdIS8PCjPL0yX8jm+ceV4PF5xywUxpHoEdqIF6WecS3JUPshYQ9XltSV+UdF30DpeTeUaJ/B7XzSSr56T2CiVQdGKugfI1yCpjCbx3i2VdH8eCAIpGQxUWiLMu+g3OA/macVr3gPLPXgKEw0/sXZGLTNrTGbKkl9jLVn2VwupRxhJE/IWdZNC3y1MpcKJaY+29LPpGPykTHoXzjhtFznWzsUtsWLv6OWFTYGSg9QU52q1fS2wiZFFmY76RMSXIQtvxYDO8rLL8MYV102dlD6YvjOQ057UfNXrLLSWEwdHCwY6/YbyGk1o6q47YmsqbiRhtgZHB3qSS+O4mJBaK+yWNzXe7MIrQsuWeXy+bwhw22FKHc2wpdL2BRBUedD/eDSJM5AugiM7mTflACuBaGMNqaSBUccVOsvtgT1BrLFFmOntgRqzFZCqpdyOOObbVcg4QeJLhzAVbROsZEdvzejC07QkrryPpIlLVQSi2fbeCDk1s3PyhF88dBT472MhcAGdGxxK+ld2qPIe1pPDjQueGRByVecDIspoQ2LHFZqzrO/J8FygdDLRgujBzzR4pqEXa30pUprk1HrQP+8KwIvEy251Tlekjwibh11InGP2xntMag1MVO4l2W0xcMFRByXKv98RVEFOZQsyPuVADfUaX+NiMxkCEoBiEEEpZui2xL5e2AtHNp9+9HIkmVrp+YwSR0ex9/L+wN1+vWp3VejAPx8tFP/49Tf1Tm8ymjgl/q/9Iukuu1tCxeWORxXzSbkbQWnK6w/afz3BURyilt6jxG7YfWeo/7XSZqE5ldAh9Gq9cJ22/4PvdjfeaYjNhSIguijjsbFycN/EG11p8tq/zbATDiUfSeirZTFu9WuGISTolTIjtuVna0q+1RvSK0cxIUeGg1TRtTemvRo6xPlwvLvU9GxV3Gj05Z/BgYi2nOZVRtCIobaGmqJghd8BKtE12IPiXUq2b8fneR89FBrBV4RnkoX9ML2//HOFsyBn7nS5qemSXIVjJZjGlcx2N6HS2sv5nsyJ7aC2Zwsx61hUDOJ3XJQ2G1I70UgHPtnYgo5VG46Qxk0wnFBYVSbSSeGaQp3dMRGvJ7h6FxfSSZHlF/ar2gEb3SeLx7BVBqSX2EBoXsfBFPUlN2vwLJ4jWAiN/ixkMQUcceehDN6UqhXY3e9PkaJKg+SzsmNGH3iqiN6hWaWG24w61vqBW9e5g/RlsM7IsNrTemcMaMdLZhMLJJXouOtg0mMNtOdW4ia3CwtHHD8RsT6AuIr91FT3FQCugn7kWtbIAJV3xoBE8bEHzH4rYhksgpmpxaEf0TMRBr2czFStQNdIS/e56PR7rn4tADyagcu8OYlxLlChRokSJEiVKlChRokSJEmfg1JKATiv+U/BhULsA/us+99llf9/he9d7So7ldurmN+pv0PO7Snxq/gNKH/5jpqHe59tnSJIfXg7a3pdev/p4b4L2369yV8DEZ2I6SX96HTBqCtFVHBiInW8mLxugy0e39YMf9cpz5cHBtYcad8/IQNdcWvU/vs4fH4GRQUcXHanB9xWlh2BkMOsCpWj8LeZjMDKYkXqaGCVulj4II8OuT84fhkwXicOtR2FkYHr27mCTu1n6MIwMbHryNbnBh7HpZLQPg06CPGlkFC9MUkpVEM+skRGejSFAUMVQjVG81ormQwuGkmlkxKq+AwDaVJWRQd6hZSkGKmlkdPlVOsVRt/ujLSefL4mNezBGBl0k1tpAvDD5eIwMeqomkhF6PEaxRv06iI3epUHNkNHr3TMybLKn1H2XhzQLfdTkFZb/r0ZGyrruAIzWQaVJz4SdA0ZG/z3k8ZQMNknX3hdNfj19ZOxu7bijc/HukJGw8HPRM+kr7EvP4/AvlFBTH+0oWWcvWgiMUnHBCrKQdfg5/CNEJWnrozToZARAS0YloztgpKQZmHz52VWUtj+6X0bUE+JKv0DGE67cRxl1ZC29hBJ/EDpN4yEZDXZh7bI7Ik5l+KiMdu9PwIWV7J6XKowRMDf0rrCH5y2qvBbA1v7mQTojir5X/v3izzVKuhX0DsIvBXeUimb4erCjmbTnMDtUkcqo/5u3zXqzJKULfobA5yC4DDUwqjRP3ka7/hUqncZI3B+17mR/9P2oir/8osS2xxOoVEZ3u4c9PRMThXuREvdQHp1RpbK7b0UXp6tcj88oWCMySgh6O0Y6NMOXVMukK/JeGLWmAE146fk8owrnrb0TRng7AtjClwNTGPHlFsQoo+fEwDYAHd0ZI3v8C2KQctoiwr43RrEBRdDh5/j/4sEZCUg94ysZlYxKRiWjklHJiGPUqZ8um5pbyGiV+BTBGMhmHaXBHMEYSCvt6xYGjP5JfFhPecqAK7derUyrCQhvTHGfwhQa0aaaCmC7RunfrjZA/ANXesq1f67cTYFPC5UoUaJEiRIlSpQoUaJEiRIlSoiI2i7ATz0l5sOKXT2vYjseATE/syKf205UPIdXmmBCn7yInijmQEmxz1oe4PxGfLU20vMgX2Xn5APPJtJF8b3k9GDYo5U1EWAKGjCLAiVFp1GPtjBOjmh99vYDvm7Ktroe9ZajO4OE6FbvY40hHALM7BT4YKcrZAJgglNeEbUnWAXWOwo4tISUMFhXuq0TuluRUkFaPPIQfNYZEy0p3niAtLP7oZ0zl3Q63JkQ2411Jqc6YcrEdEFkrvt4w2+J1WBUQA/tIOklg5Cq1ieKp2MxUh1nzkh7NZqGSMlG7xpn03orJpXDqjl70zCUXTejZKBJsbZngkrYMSqsh3ZwbdkNOvS60rD6TefSdDR2tvy6mdEdy+7QMYQ+FcfetGeeyUXDtD6+LmIuv+aI0fZToS2bH29nbxgZrF9cjoGK/3L2noVN6r1mrsEXuU/n+uer6HphusGXJCFNgJCwk9kmn7aWF9OWYloQpWCZSsjY6T26WHWv7ik/2mWVvSIpXkEaPBDTJkrqZoiMJ9fM5cideG/WlWk+MS1iLp27SyeAEmPpddwIPqNxROBH7mC8wMQ6m+CPQqaMaNuSf6Oa4T4n3l1hRttw9afRdofT2i7bYOA7UXc6dBut3jMxCU1JxIdRKORaYky3pd98Exr0YtI5uossNraL1+X7/8bj9+XsadS3CbqU8NfCq6AiJgZ90etVc4T9kUHW9jV35jC22eFOHGNCPnZZO6Bw1xsfwhhHc62M1pI282NLWW/C2918eZvsp58kVznSqR0kibb3yd0bnnLOaF7oxdFEDOZClexNnwfKEZMSs8PVDb/at3T1EyPo72kH2ZBk31pqYyS4guLp+70j34RKucqPsNErn5xjJpZq6trMDkVNy95Oi43jvljXp8OVAlOLtsAOvy3u/pimLEW+mJYaE94D2R3MFLKWM2SEMGh098aRZNyttTBqiI1lCQmDooZnISHb2GVgRsz+aigzL5qiiYSJjk7yxeycGMk2Q1FnPCLZhh9FxnLgnnNlikuGQXRkSJNobnRu7z/987E1UZqF8w073vmil5a0d77gPIvDXcMZkiPOIip5S+6IwJ92wldjl8L77BCMzSNCtrPe5tJrvm1x3BH1meSKs8i8dDDhD6utj5c+MpGQm5xaJlmE6031KsPzU8wsT5QdhELmcIP0rvm7wIlqw2rnI3xJtjMdu9MoEi/Sn4Fk3FmqtlAk2Fd0nK2VppT742zVd0dCbsOMJQgQ9ALLmsd5kiyBZT3wrNbh3k/RgRf8AoyYkXUzye99SdbDQWHvp3iUVAOLEc6cX9IJ+Sd9sibVC2BCSDJQOoqb8l2U4ySntuDaJMfRILCT2bOStuPNxTwHH11ennijmLUEx0O8EEpedm4U5zprA+uZ/ZZdnoDvJVPJthskymK5Dg83YGajHC3sz5NeGlPpYDHRRzSfkoFuvnzyfCQsYLU+ah/vH2L0ns8HCB8+NfMdnmz6x6U+z7hNoLbdt41NjEFODQOtKOtyZgYpohAdhh5S096VBiGUord17oVaSMaaO8vr0NvLIlxyzYrmfPZ7JaQLuR7P8MXq/EEQ/vTvy3Jw8/uUcAesN6n1LfDfY6Rx1N0JXqBmKPCc+GfgAdP5UoqP+wc8NjF/JhK5QHSgzfBzmacLAnBfK+4F7gFTvo/Yk9bwtVuga3OuDxo+PKNoxu/KP28tkDKAN4nkNL3vCZ0kI5zZOXaHaHMeyOXDq7p4D5A8YEDercXRgaRlp+yHvwtsEmvs46+vO0Qnr6qWQ8c7wLe2w3axUbQ/hu72q5NIr8ArPj+KL78q03J2fxcI9l5eRnI7tu4PwQohi/4HzIUEhpvqT9w5/T/oPjfEX6LtZAAAAABJRU5ErkJggg==;" vertex="1" parent="1">
          <mxGeometry x="249.25" y="1016.5" width="69.38" height="80" as="geometry" />
        </mxCell>
        <mxCell id="WqEL0ySqIm0HVowMZsN5-12" value="" style="endArrow=classic;html=1;strokeWidth=3;" edge="1" parent="1">
          <mxGeometry width="50" height="50" relative="1" as="geometry">
            <mxPoint x="164.25" y="1152" as="sourcePoint" />
            <mxPoint x="244.25" y="1152" as="targetPoint" />
          </mxGeometry>
        </mxCell>
        <mxCell id="WqEL0ySqIm0HVowMZsN5-13" value="" style="endArrow=classic;html=1;strokeWidth=3;" edge="1" parent="1">
          <mxGeometry width="50" height="50" relative="1" as="geometry">
            <mxPoint x="164.25" y="1062" as="sourcePoint" />
            <mxPoint x="244.25" y="1062" as="targetPoint" />
          </mxGeometry>
        </mxCell>
        <mxCell id="WqEL0ySqIm0HVowMZsN5-14" value="" style="endArrow=classic;html=1;strokeWidth=3;" edge="1" parent="1">
          <mxGeometry width="50" height="50" relative="1" as="geometry">
            <mxPoint x="325.75" y="1063" as="sourcePoint" />
            <mxPoint x="382.75" y="1063" as="targetPoint" />
          </mxGeometry>
        </mxCell>
        <mxCell id="WqEL0ySqIm0HVowMZsN5-15" value="" style="endArrow=classic;html=1;strokeWidth=3;" edge="1" parent="1">
          <mxGeometry width="50" height="50" relative="1" as="geometry">
            <mxPoint x="384.25" y="1151" as="sourcePoint" />
            <mxPoint x="329.25" y="1151" as="targetPoint" />
          </mxGeometry>
        </mxCell>
        <mxCell id="WqEL0ySqIm0HVowMZsN5-16" value="push" style="text;html=1;strokeColor=none;fillColor=none;align=center;verticalAlign=middle;whiteSpace=wrap;rounded=0;" vertex="1" parent="1">
          <mxGeometry x="184.25" y="1122" width="40" height="20" as="geometry" />
        </mxCell>
        <mxCell id="WqEL0ySqIm0HVowMZsN5-17" value="upgrade" style="text;html=1;strokeColor=none;fillColor=none;align=center;verticalAlign=middle;whiteSpace=wrap;rounded=0;" vertex="1" parent="1">
          <mxGeometry x="334.25" y="1032" width="40" height="20" as="geometry" />
        </mxCell>
        <mxCell id="WqEL0ySqIm0HVowMZsN5-18" value="pull" style="text;html=1;strokeColor=none;fillColor=none;align=center;verticalAlign=middle;whiteSpace=wrap;rounded=0;" vertex="1" parent="1">
          <mxGeometry x="341.25" y="1122" width="40" height="20" as="geometry" />
        </mxCell>
        <mxCell id="WqEL0ySqIm0HVowMZsN5-26" value="" style="html=1;dashed=0;whitespace=wrap;fillColor=#2875E2;strokeColor=#ffffff;points=[[0.005,0.63,0],[0.1,0.2,0],[0.9,0.2,0],[0.5,0,0],[0.995,0.63,0],[0.72,0.99,0],[0.5,1,0],[0.28,0.99,0]];shape=mxgraph.kubernetes.icon;prIcon=svc;rounded=1;" vertex="1" parent="1">
          <mxGeometry x="478.63" y="1218.5" width="50" height="48" as="geometry" />
        </mxCell>
        <mxCell id="WqEL0ySqIm0HVowMZsN5-27" value="&lt;b&gt;&lt;font style=&quot;font-size: 14px&quot;&gt;SVC&lt;/font&gt;&lt;/b&gt;" style="text;html=1;strokeColor=none;fillColor=none;align=center;verticalAlign=middle;whiteSpace=wrap;rounded=0;" vertex="1" parent="1">
          <mxGeometry x="467.38" y="1277" width="72.5" height="18" as="geometry" />
        </mxCell>
        <mxCell id="WqEL0ySqIm0HVowMZsN5-33" value="" style="shape=image;verticalLabelPosition=bottom;labelBackgroundColor=#ffffff;verticalAlign=top;aspect=fixed;imageAspect=0;image=data:image/png,iVBORw0KGgoAAAANSUhEUgAAAOEAAADhCAMAAAAJbSJIAAAAqFBMVEX///9fQ+lAQLL6+v45ObCilPFPK+dZOuhRL+hWN+j39/x9fce3rfTp5vtUM+heQekxMa4tLa28s/XVz/ifkfF7ZuyBbe1oTuonJ6ypqdk3N7BsU+vc1/nNxveZivDl4fvHx+aHh8vW1u1/a+3h4fJLS7aFcu5kZL7Cufbt6vypnPKLee50Xuu6uuCZmdLs7PdbW7tFGue0qfRLJOciIqtkSepZWbt1dcQVUpZjAAAF8klEQVR4nO2d63baOBSFZWMwkICBMARIm0svaZOZaUtop+//ZiMZEyxbsiVjR0en5/vTH+1a8bfK7tnWhTJGEARBEARBEARBEAThP+/vXD9B17zslt9dP0O3XI7i+MX1Q3TK5ShIptfvXT9Gh3DDIEiGf+GNY2rIHQe3Y9eP0hGZYRDEQ6RxfDVEG8eToYjjCmEc84b8ozq9RTcdZUPuOMIWx6Ihj2OAK44lQxHHj5jiqDBMpyOeOCoNeRzxlFWNIaLpqDMUjjjKqt4QS1mtMuRxHFy6fsCzqTbEEMcaQwTTsdYwLas+x9HA0POyamTI4/jL2ziaGfq8lGNq6G9ZNTf0tazaGPo5Ha0MvYyjpWEax57rh7bC2jAI9hPXD21FA8MhGcKiseH4LSfH5oxi3Niwt7u5akughvvPayeGg2S4eovP66cv8yhyYyiWAJZdT47xwzoKQ2eG4r1q0ZaLks18G4ZODXmR6zCO959nYejaUJScx27iyAMYhhAMxTLHsv1ljvHDPAqhGAZJHLcdx81sG4ZwDNNljjbjeB/OwhCWYatxzAUQkqE4zdFvI46HCQjSMAhGyflx3Gy3RT9AhudPx9cJCNUwPbHSPI7lAAI0TMtqs+cZP/wsBRCkoWgATeIoT0DYhk3iqAkgVEMRR6vpqA0gXEOrsipVUH8Mzd8dqwII29CsrBYrqFeGBtPx05d1vR9kw5rpqKqg3hmKsqo7saKsoK0bvky7NtRNR6MAtmB4dz1NOjZMT6wU41g3AdszZOxrMrJztDcsrawaB7AVQ9Z7nsZdG4rpeIpjtgr6ZoaMPf09sPhrbGYo4vgu/WnVFbQbQ8be/TM0dmxoyP9VXaY/67flX2A7hmkcuzaM++lPurCKYHuGjD0PzOLoryGPo9FH1WNDEUeD6ei1IY/jr9rp6LmhwXT03bB+OvpvyON4U/VPDgbD6rKKw5BPR20csRjqpyMaQ21ZRWSoKauoDJVlFZmhIo7YDMtlFZ9hcTpiNJTLKkpDqawiNcxNR7SGr3FEbJiVVdSG6XTEbSjiuENuyNgCveEBMkRguLPddzzDcO7kMvmt3Z7cGYbb2TcXgozdPdrsyTU2jNa/3d0/vrqx2iJvZDj/74MzP8HC5qPawHC2/depH6e3HBo7WhtGa0cBlJmsTLePLQ2jucMAypjG0c5w/sNtANk4yB0DWhhtkdsYzkL3AdznD8mO+wZb5OaG0fyb+yvxvLXFw9wxoMmqdjqaGjqdgCfSXiodkr2qO0BmaOh6Ah45NO9kep2PY1z9vVomhrPIeQAzju8W0o2u8bKqARgY8grqPoAZp7cn6UbXpKKs1hpG6wsIAczIvx9KN7r007HO0PkElJHegOVDsouR+qNabQgngBmFd/xkuHo6/d5SOR2rDIFU0DylVQzpzLqyrOoNAVXQE4p1Gum+syKOWkNgAcxQrUQV4lgsqxpDABVUiXqtTbrRNS68OyoNtxAqqBLdamI8zZdVaToqDGFNQBn9emn+zLpUVsuGUCqokooV4VJZTdSGUAOYUbnmLZXV3rGsyobOVkFNqVnVly5YTh7T6Zg3hBzAjNp9izjOx1FMx5whzAkoU78zUyqrr4bgKqgSk70naTr2+vvDjZKLn8ADmGG2uxbv83H8mv6ygR7ADNP9w/a/nOetMN4h7fS7srrEYg/Y0/+/xmqXOx528F1ZXWO5jy+VVT+wPakgl1UfsD+LkeyfXT+0Fc1Pm/gCGZIhfMiQDOFDhmQIHzIkQ/iQIRnChwzJED5kSIbwIUMyhA8ZkiF8ejvbC5a+GR6PASE2tL5g6aFh7RUSBIalQ7L4DI1udHluaHCjy3tD4zh6bFhzowuDodl09NvQZDr6bijiWP1R9d9Qd6MLkSFjT1VxRGFYGUckhhVfP4DGUPv1A3gMdWUVk6E6jrgMVWUVmyHr9QvvjugMS2UVoWEhjigNpa8fQGqYK6tYDU9xxGt4jCNmw0NZxW3Iy+p0ittQlNVb14/QOU/1f4QgCIIgCIIgCIIgiD+X/wEzo5EzDuDO6gAAAABJRU5ErkJggg==;" vertex="1" parent="1">
          <mxGeometry x="45.89" y="1366.5" width="75" height="75" as="geometry" />
        </mxCell>
        <mxCell id="WqEL0ySqIm0HVowMZsN5-34" value="&lt;span style=&quot;font-size: 14px&quot;&gt;&lt;b&gt;TERRAFORM&lt;/b&gt;&lt;/span&gt;" style="text;html=1;strokeColor=none;fillColor=none;align=center;verticalAlign=middle;whiteSpace=wrap;rounded=0;" vertex="1" parent="1">
          <mxGeometry x="11.75" y="1340.5" width="160" height="20" as="geometry" />
        </mxCell>
        <mxCell id="WqEL0ySqIm0HVowMZsN5-37" value="" style="endArrow=classic;html=1;strokeWidth=3;" edge="1" parent="1">
          <mxGeometry width="50" height="50" relative="1" as="geometry">
            <mxPoint x="82.25" y="1233" as="sourcePoint" />
            <mxPoint x="82.25" y="1326.5" as="targetPoint" />
          </mxGeometry>
        </mxCell>
        <mxCell id="WqEL0ySqIm0HVowMZsN5-38" value="" style="endArrow=classic;html=1;strokeWidth=3;" edge="1" parent="1">
          <mxGeometry width="50" height="50" relative="1" as="geometry">
            <mxPoint x="133.52999999999997" y="1409.5" as="sourcePoint" />
            <mxPoint x="380" y="1410" as="targetPoint" />
          </mxGeometry>
        </mxCell>
        <mxCell id="WqEL0ySqIm0HVowMZsN5-39" value="" style="endArrow=classic;html=1;strokeWidth=2;entryX=1;entryY=0.25;entryDx=0;entryDy=0;" edge="1" parent="1" target="WqEL0ySqIm0HVowMZsN5-34">
          <mxGeometry width="50" height="50" relative="1" as="geometry">
            <mxPoint x="119.25" y="1385.5" as="sourcePoint" />
            <mxPoint x="184.25" y="1356" as="targetPoint" />
          </mxGeometry>
        </mxCell>
        <mxCell id="WqEL0ySqIm0HVowMZsN5-40" value="backend state" style="text;html=1;strokeColor=none;fillColor=none;align=center;verticalAlign=middle;whiteSpace=wrap;rounded=0;" vertex="1" parent="1">
          <mxGeometry x="142.5" y="1320.5" width="98.75" height="20" as="geometry" />
        </mxCell>
        <mxCell id="WqEL0ySqIm0HVowMZsN5-41" value="plan" style="text;html=1;strokeColor=none;fillColor=none;align=center;verticalAlign=middle;whiteSpace=wrap;rounded=0;" vertex="1" parent="1">
          <mxGeometry x="36.00999999999999" y="1266.5" width="40" height="20" as="geometry" />
        </mxCell>
        <mxCell id="WqEL0ySqIm0HVowMZsN5-42" value="apply" style="text;html=1;strokeColor=none;fillColor=none;align=center;verticalAlign=middle;whiteSpace=wrap;rounded=0;" vertex="1" parent="1">
          <mxGeometry x="201.25" y="1385.5" width="40" height="20" as="geometry" />
        </mxCell>
        <mxCell id="WqEL0ySqIm0HVowMZsN5-44" value="" style="shape=image;verticalLabelPosition=bottom;labelBackgroundColor=#ffffff;verticalAlign=top;aspect=fixed;imageAspect=0;image=data:image/jpeg,/9j/4AAQSkZJRgABAQAAAQABAAD/2wCEAAkGBxIHBhUSBxIVFhUXFyIZGBYWFxobGBcaFxUWHh4YHxgfHyggGCYlJx0YJTEnJSorLi4uGiAzODMsNzQtLi0BCgoKDg0OGhAPGDMeHiUtNy0vNy4rLTArLS4tKy01NS0tLSstLSstLTUrLS0tLSstKy0tLTc2NystLS0rKysrLf/AABEIAJ8BPgMBIgACEQEDEQH/xAAcAAEAAwADAQEAAAAAAAAAAAAABQYHAQIECAP/xABIEAACAQMCAwUEBAgKCwAAAAAAAQIDBBEFBhIhMQcTIkFRYXGBkQgUMpIjQlJyobGywRUWJDU3U3OCw9E0VWJjdaKjs7TE0v/EABkBAQADAQEAAAAAAAAAAAAAAAACAwQBBf/EAB8RAQEAAgICAwEAAAAAAAAAAAABAgMEIRFBEiIxE//aAAwDAQACEQMRAD8A3EAAAAAAAAAAAAAAAAAAAAAAAAAAAAAAAAAAAAAAAAAAAAAAAAAAAAAAAAAAAAAAAAAAAAAAAAAAAAAAAAAAAAAAAAAAAAAAAAAAAAAAAAAAAAAAAAAAAAAAAAAAAAAAAAAAAAAAAAAAAAAAAAAAAAAAAAAAAAAAAAAAAAAAOG8Acgq2t72oadJwt/ws11UXiKftl/lkqV5vu7ry/AuFNf7Mcv5yz+osx1ZZM+zla8L48tWBjy3hfZ/0h/dh/wDJJaf2gXFCS+uwhUXs8Mv0cv0Eroyiuc3Xb3008EVoev0dapZtJeJfag+Uo/Dz965EqVWWfrXjlMp5gAQuu7rs9vVox1mvGlKabimpPKTw3yTOOpoHm06+p6nZQrWM1OnNcUZLo0/MjdU3ZZaRqcbfUa8YVZ44YNSbfHJxj0TXNpoCbAAAAAAAAAAAFXu+0LTLO6nTubuEZwk4yi4z5Si8NfZ9TvY790y/rqFteUuJ8kpNwy/RcSWQLKAAABWt7bzobOoQlfwqTdTKiqaj1jjOW2kuqAsoIZ7jo09qq/ucxpOiqrXWSUopqOF1fNL3ng2Tvm33jGp9QjUhOnjihUSziWeGSabTzh+fIC0AAAAAAAAAAAAAAAA4fQzrfO6JVK0rbTpYiuVSS6yfnBP0Xn8vfddw3r0/RatWHWMHj3vkv0tGJt5fM0aMJe6w83bcZMZ7d6FF16yhRWW3hIumj7ZjGPOHeS82/sr3J8vmROzbfvLmcvNJRXs4m+f6DV7eiqFFRp9ET27LOoz8bjzPuqjc6V3VP+UUY4/Ni0VvWNvx7tzsFhrm4eT93o/YarOKlHEuhU72j9XupRj0T5e7qV4bKt38eYxm9jeTsLqNS0lwyi8p/ufqmbNompR1XTIVqfLiXNeklya+DyZBrlBW+qzjDpnK/vJMvvZhNy0Won0VV4+MIE98lx8ocLOzO4elyMP+kBHi160S86U1/wBSJuBhf0h5cOr2rX9TP9uJleolew/XpW1atpmocpU5SnTT8mpYq0/g/F8ZehE9rnLtRtfzaH/kTOvadZVNpb2oalpq5VGp+zvYLE4P2Tj+uZ+HaTfQ1Tfen17R5hVp0JxfsdxL9QG83FxC1oSncyUYxWZSk8JJebb6FNn2r6TC54PrMnzxxKlVcPvcPNe3oVD6QGtThKjZ0W+BxdWol+M1LEE/YmpP34PXZ6btyO21Qr3Fm6rp4lWdSPeqo485KecrD8unlgDULfUqNzp/f21SM6TjxKcXxRcUubWOpH7e3XZ7kqVFotZVO7xxYjJJcfFjDklno+noZb2B6hJX9zZ1ZZg4d6l+LxKSjJr85OPyPy7L4vbnalc2U+UWqkEvXu5qdN/cy/iBquvbwsdvXKp6zcKnNx40nGb8OWs+FPHNP5Erd3tOzsZVrmSjThBzlLyUUst/I+de0Kc9ybwv6tvzhbRUf7tOpCm196c37ky7a5uL6x2GQm5ZnUhC3ftlGfBP9EJAaNoG5LXcUJvRqveKDSk1GaSbTwvElnp5Eq+hROxbS/4P2PCc1iVeUqr9zfDD/ljF/Evb6AfPGkaNR1/tdr2+qRcqcq9dtKUovwuo14otNcyzdovZhZaVtmrc6Mp05UlxOMpynGccpNeJtp88rmU6GrVtD7Trm406j304V6/4Pxc05T4n4U3yWX8CS1PeWpdo1v8AU9Mt4KLxKcaUucoqSxmcmkop4bwvT3AXvsN1mpqe1p07xuXcVOCEm8vgcIyUc+zLXuwWLcW+tP25X7vVK6VT+rhGU5pPo2op8PxwQmh6S+zjs4rzlwyrqEq02vsupwJRivVLEV7ebM47MaenXN5XuN61qMpuS4Y3ElicpZlOo4v7Xl7Fz9gGz7b3jZblbWkV1KSWXBqUJpevBJJte1cih/SF/my0/tJ/sIpm9q9noG76N3surTcElUcaMk4wnCTUorH2VOPLh/OLj9ICfeaPZyXnUk/nTQFu0S3oXXZZQhrOO4dnDvG21iKpRbeVzWMZyvQ8XZdZaXa0672jOdTxRVWpNSy+UnGKzGPJZfReZzT/AKFV/wAO/wDXK99Hz+bLvP8AWQ/YYGi7h3LabcoKesVo08/ZXNylj8mCzJ/IidC7RtN1y9VKyr4qN4jGpCUOJ+kXJJN+zOTJ9u0l2jdp056tmVLxVOHLS7qm1GnT9UvFFvHXxeprtv2f6da6tTuLS2hCdLnFQ5Qz5ScOja8mBaAAAAAAAAAAAAAELvGi7jbVeNPrwZ+61L9xjZvso8UcMyPd23JaLduVFN0ZPwy/Jz+I/T2epp0ZyfWvP52u3xnHXaFz3V3KD6ySa98c/wCf6DVLK8jdUk4vn5rzRh1ObpVFKm8NPKa8mWvTdyQqRSvPBL8pfZf70S26/l3Gfj8j+fTS7i4jb081XhFVua3f13J+bI6prFDGZ1ov45fy6kFrG4PrFN07FNJ8nLzfsS8iGGurd3I+SM1i4V1qU5Q6ZwvdFY/cansvTXpmgwjWWJS8cl6OXl8FhFZ2ZtCTqxr6rHCXOFN9W/KUl5exGhpHN2cv1i3iabL88nJhX0iv50tv7Cp+3E3UpW/ez2nvS5pzua86fdwlBKMU8qTTzz9xQ3PZvfby3Ps2VGKXecKnSfpUisr584v2SZ88afdyr6jZU6yf4GtGCz1SlcqXC15YcpfM+raNPu6Kj1wkvkjPdS7Jre83K7ujXnTzVVXu4xi48SkpPn15tN/FgVP6QdjOGq29eC8MqTp58lKEnJL4qT+6y16F2eaLrOkU69pQcozgnlVqvJ45p+Pk08pryLpr+iUNwaZKhqkOKEvg4tdJRfk0Zs+xmdvVa03UqsKb6x4Xl+9xnGMvkBcNq7V0zRtUqVNvRXewXdVMVpz4eLhlwuLk1F8ov1M97TH/ABY7ULW/ivDNKUsLq6eYT9/glE0XZGx7fZ1Kf1KVSdSpjjnN9cZwlFeFYy/V8+o35synvKzpwr1JU3Tm5KUYqTw4tOOH68n8AKD2Rbf/AIY2lfzvFzunKjn1xBty+9N/dM6heVLzb9LTVlT+uOSXPlKcIU0vhJzfxPpTamgw21oNO1t5OShnxNJOTlJycmveyrWnZdQtt5fX41pP8NKsqPAuFSlxP7Wc8m8/AC76baRsNPp0qHKNOCgvdFJL9R6H0OQ+gGD7L/pwrf21x/iDtM0KpsndNLUNB8EJz4kkvDCr+NDH5M1l4/O9hoOj9ndPS95y1GFxOUpTqS7txiorveLKz15ZLFufQqe49EqW179ma5SXWEk8xms+aYEDqV9He/ZlWnpSzKrQliHnGpFZdN+3Kx8jL+yLQdP3JOtS1yHFVWJU13k4NwxiWFGSzh4z+cjVdi7J/id3kbe5nVhUw3CcYpKS5cSa9VyfrhehC7n7JKGqai7jSK07apJ8TUVmHE+skk04N+x49gHou+zTRLVxjd0uHvJcEVK4qpzk+kVmfN+4gu3+mqWj2cYdFUkl8Kawe/R+yCnSv41tfu61zKDTiucVlNNZk5Snya8mi2722nS3fpCo3UpQcZccJxSbjJJro+qabTQELSfF2KrH+rv8Arv0fVxaXdr/AHkf+2yz7b2JPSNsXFlc3c6sK0XGL4cd0pQcXwpyfvxyWT2bD2XDZtvVhb1pVe8kpNyiljhi1jkBkvY/NaD2iSoX/hlwVKC4uXjjODS+PA8fA3y4vqVrWhC5qRjKo+GEZSSc5YbxFPq8J9Cl717MLfc999Yo1JUKz+1KKUozaSxKUeTysLmmvLOeRF6L2Qxo6nCvrt7VuHTalFeKPOLTWZOUpYTSeE10Avi1+3eodyqnjzjo8Zzw44unXw+nF4evIlCuR2so6r3veeHOccPiwqqqqHFnGONJ54c4WM+ZYwAAAAAAAAAAAHStSjWpuNVJprDTWU/gdwBT9T2Bb3Mm7KUqT9F4o/J818GQ0+zqupfg61Nr2qS/zNJBZNuU9s+XF1Xvwz227OZcX8rrrHpCP72/3Fn0fa1tpL4qEOKa/Hnzl8PJfBE2Dl2ZX9qWHH14dyOEsHIBBcAAAAAAAAAAAAAAAAAAAAAAAAAAAAAAAAAAAAAAAAAAAAAAAAAAAAAAAAAAAAAAAAAAAAAAAAAAAAAAAAAAAAAAAAAAAAAAAAAAAAAAAAAAAAAAAAAAAAAAAAAAAAAAAAAAAAAAAAAAAAAAAAAAAAAAAAAAAAAAAAAAAAAAAAAAAAAAAAAAAAAAAAAAAAAAAAAAAAAP/9k=;" vertex="1" parent="1">
          <mxGeometry x="279.25" y="1449.5" width="147" height="73.5" as="geometry" />
        </mxCell>
        <mxCell id="WqEL0ySqIm0HVowMZsN5-45" value="" style="html=1;dashed=0;whitespace=wrap;fillColor=#2875E2;strokeColor=#ffffff;points=[[0.005,0.63,0],[0.1,0.2,0],[0.9,0.2,0],[0.5,0,0],[0.995,0.63,0],[0.72,0.99,0],[0.5,1,0],[0.28,0.99,0]];shape=mxgraph.kubernetes.icon;prIcon=pod;rounded=1;" vertex="1" parent="1">
          <mxGeometry x="544.75" y="1222" width="50" height="48" as="geometry" />
        </mxCell>
        <mxCell id="WqEL0ySqIm0HVowMZsN5-46" value="" style="edgeStyle=segmentEdgeStyle;endArrow=classic;html=1;strokeWidth=1;" edge="1" parent="1">
          <mxGeometry width="50" height="50" relative="1" as="geometry">
            <mxPoint x="410.25" y="1486" as="sourcePoint" />
            <mxPoint x="567.25" y="1300.5" as="targetPoint" />
          </mxGeometry>
        </mxCell>
        <mxCell id="WqEL0ySqIm0HVowMZsN5-47" value="&lt;b&gt;&lt;font style=&quot;font-size: 14px&quot;&gt;POD&lt;/font&gt;&lt;/b&gt;" style="text;html=1;strokeColor=none;fillColor=none;align=center;verticalAlign=middle;whiteSpace=wrap;rounded=0;" vertex="1" parent="1">
          <mxGeometry x="531.75" y="1277" width="72.5" height="18" as="geometry" />
        </mxCell>
        <mxCell id="WqEL0ySqIm0HVowMZsN5-48" value="" style="verticalLabelPosition=bottom;html=1;verticalAlign=top;align=center;strokeColor=none;shape=mxgraph.azure.github_code;pointerEvents=1;rounded=1;fillColor=#000000;" vertex="1" parent="1">
          <mxGeometry x="-125.75" y="1374.5" width="75" height="75" as="geometry" />
        </mxCell>
        <mxCell id="WqEL0ySqIm0HVowMZsN5-49" value="" style="shape=image;verticalLabelPosition=bottom;labelBackgroundColor=#ffffff;verticalAlign=top;aspect=fixed;imageAspect=0;image=data:image/png,iVBORw0KGgoAAAANSUhEUgAAAOEAAADhCAMAAAAJbSJIAAABnlBMVEX///+XzGT/0FCqqqr9Wj7TXr7/2FH/22v//Mn/0U26sZryy1v/Vj3/1EyXzWTRWMLefaaquF37ylWmqK7uaEKS0Wavr6+b02XVXsD4+Pinp6f///z///f//f/o6Ojz8/Pi4uLIyMjR0dH/YUO7u7v///Gf2Wj/6f//+f/cX8bx/83//+3a2tr//7PU6sDx99LQ77Sq2H6bzGz8bWHpdqPaaMPq7+Xs9eP/8//4/+S13o6q33P/3lL+1Fyz4Iewxpyyw6P+54Df7tHc4r74wrX8y8L619D34t/V2s7X+rbS+6rM/Z7H/ZO47YTxdVD/a07/dlr/hmj+lHv/pZD/s6Pu9Mv9vqP8ybSHvVb7TC7/lIP/uq3/8N/c9MH/iW/9m4D/4M3zYEf2y+L8zfbbesrrkuGbx2yr0oHB6J/0qevc/rv9wPLom93/8ej6z7jmbZ38r/rsgtqv0Y3kp9rrjN7kstrSbMD+3v7+zv7/xv7/ovnplLj93On8/p3+8s7w+r//8rT/7Jr75LD/8H///L3/5nT/8HH/3oH325PRybc5JN+SAAAP10lEQVR4nO2d+V8T1xqHZ0LWSo5tvSUZJismQAhkU4hJTG6TShSsFwSpCwRFpcSFXnd7762RiEj7X98zASTLZOY9Z1b64fuzGebxfc+7nG0Y5lSnOtWpTnVSNB7IVhKCfrpyZXZ2tlqtXg0Y/U7qKHAtUZubv/7zzzduFAqZDPvDd/9aELSIdXNp+dbq7EjQ6HekFZdNJlc+zl8vZTKZO54jjX73j0HrV51fEDB/uT1bDfJGvy+ZfNlsNlFPZ+6MtrAQYo/0QwdhS4N3NxaXbv1WrW5zRr83TMFspZLKZ1gB7JhMglCAHLx717p4b3W2etXklFw2l0zV04LZetikCL967c17q9Wrph2YHMfkUvl0QbCdiPUghNbzeGQura75zGlJvvaqcIDXhw5AKHgshrxXxf9hRvN0iUvmWYwmBQckbA3LwYXlqpkQ+WzqRoGVNh4JYUsL61cCZkkhldr1Ats3ttASWq2L929fNZqNEeyXKLEIyEdGiO14//a2wXxcJZVmId5JR2gdtK6vGjogc6k08sDxyAmF0Lq+apiv8hN5Qj4KQqF4XX5gjK/68uwogX9SE2ItLOuPx8frd0jGnzJC692NK/q2k7yvVvLQANISYl9dquqZHXNzOAFS8CkgxFX5ql6j0c+s1EH1i7qEVqGS0wdwRkiBdHyKCLFururQWfHJOj2fUkJdzJgskacI1QjxaFx/oC2fr0YZYdQitFo3bvu048NNIG2EUY9wcPCWZjGVT5QU8qlBiBmXtZqvqqXBTZKmhEL21wSwklHqomoRWq3rGiDyCTUA1SIcXJxVu4bz1TIq8KlGaLUu3lYX0Zci6uR1ILRu/KImIp9QUsdoQ2i98FBFwModlQBVJLxw0fZeNcCaWhZUkfDCxWmv7dG4OoQqBRlVCVuA3nePVAGspNUDVIuwBWjzeh+r4agY0GyEgwsXbRiwhTimlI/LKS62hUGMPJ7RA7UT0rIuXvS2AAXEzTGFSSNeV1KLHrIVCr9u5eeeTqzkcj5+7cGD326vLt9fWl/cOH/+PAUgjqIx26G8sU1lVvSlFAFiPJTO1+cmksncTCAY9B86RjAQuFqtVjEoxiQHnP4KaLPFYk/8CgD9CXo+YbIqXU/VEpWZvpMrXKA6u3praRE3fSSAXlubvDElmT9Jmwix8dhSqlLJQv7K1eqVW+vngYzdgELIGaO2YpwyTyB0Jz2/UvHBl6p91V/uL0IiTw+gwEgdbaLzo1R8LFu4XpvhGZL/WT8fXF1akAXcOEwTnYo9uUQFOP6Uykfx8KtXqP5PueqStBkHF771igDavNPPqP5gLU0+rYbY0a1UlMh6Hdpe3pDIHxcuigJixMcU5Zs/Tp7qESr8+tTnVzBNxPke9GcUG4NH0eY5sZ/6+Rp5LeNB9QnFben2lXVxxP6Agp8+IvUbPkkcRxHK10DZQU7V1Zsi+VEKECO+IazB/TOkPoqLF3X4sPgHtza6EaUBsZ9uhsj+xlyBLMx47pSSKq4LBX672RlFF6UBBT99QjJA/L4CkQVxhVbKqccnqLrUXuUsXPTGJAEFRKKGn8xHEZtJqb7Mzl05LgAWvj0rbUGB0Puc4Olxoo4CsXmVDXigB0dBFbdLAHlt8D6Kz5MMQlzDxJU0MP21du88IMi0GRH6Gr4JAj48ButxTfiwtu/hMg4IiDX9O3Ao5khM6GHrUa0AcWO1NAgHtEH7/SBJX48BNVySFQrVf4MBsRHfgjJWpQQ3oYed0xSQYULPxfolcUEnbQjWKHCQ0Xyj0qVNOKLNBpjR8GfhoxBp7KIHGnvcp2cSUQzSY1TAJsRRVMMgcyyMCPbTaXk3jdfBPurRJtH36j0B4jNZI66Al2FQWidAjDgNJnwp1+3PzIMB2ZRu2yHHX4OHoveFzFslbgDjDGK39KFryf8OGlBjL2Va4evQOOMp6BJljjQ2DUT02l5IPgjcF3oyEzqxHep3aGnjfSlZfyc8MCdFaE7nY7zjT4BDMTYtGWvyQCdFr9SakwHr/SbUTSU6YY6HArIV/dCO9Ag6Eh+P9w2nfAI2eYE8dd1NiIPNJsxPJedOXwEJMwkdyb7q2TsYoe11X0IfbBYYFbRumcR16YXcfNshYt+BGKjBcgXa0q1c69R7oBFfPuqzdJID7koo1AwxITbiE5ARvdOv+5TfuS0IIEJbBgFiRJiXevu0+uMwJ0Uopc3cIUDcc1g4ffleNF8EUwWIj7LIuNPy3BgwX7wVfcVsHjIMEZvXm6tdjyFp3zstPpkB26nuKRiSCw/FvY1BCG3i290SkOM+CN0w9CaASy9BhDExQtgGL09mTneqdl0CTZ96Y2JtcLYOctKSATV3m/xvQUYU3WGT3YIQopRhybAlfgzSRHm9YqEmCwk0KLNi8F0V468Bbur1PhYjBKX7Et12J/U0/ghQnOJ/0UvIr0DmLzwpXeefRMS9fwPJ+md7CP3X5iGEyMhkeKjXZyGEve1FErKmhjLGRtKW3kLyRexFqPt3kD1QyLNlwOxFtx5CukTvZk9GTELWKwyZn+kS//4xoEsUOYmxAplm8+i3VNFfl55DCN/1EgIObyFUMwKpWyDC3mNfH0GBxgShlGEgs99eW8/M91MAoWfLBKGUYZ5BljDO/t71q9B1CGHe+ECD9egdwE1j/+n61TUI4agJQinWQ0gwjXWvlEII0WjdFPfG/vEGRDjT+SvQNqFRvZfUxBXahBD+N9T5KxBh4alh84jtAhJOdv4KRqjzum8fzUDWL2JvuggTJ4gwCCP8o/NXCcgBGZMQ8iDC7j0ZkCNAyCSEzIvYWXl1bx06UYQPvwXof11eCjrGZRbCKcv3srI4nJ0/OknjkJm67JbVZTrCj6bIh5jQIit7DyEs46t0D4Uy+T/QEMIy/pwpLhMPaElojrqUivAk9RZ0hJMnqD9cK9spCAOQKW9P3hSzGA0HDSE3ByFMm4LQSUXIfATcLmCSubadIhUhZL6UZU0xX9osujQj9KQMQepSE2BCEULIugXyGLzGLcgf3ackhKw9IRNMmHKgUCpGCLibFJli/bBRdFMRZiEJ0ZD93d36ZAEEGhFCrgZaxzdBuvgTAihCyFRAhPNZgz//Ekzu0RJmAYAsShu9n8a3A8mG4oSgHUNszWDCaBMEKEoIuikCu6kRXMdK7tITgvaxG7u9VHDSPUiuECVkaqD9pey8AVzHiu6CcoU4IexIELphZJ/PNb7ATChKCLvG01MwtL9o2hUQ4oEIsSGbNgDsSHwR6KSihMEU8LxFzrB5Yb/TDQQUJWSSQMJX+qMdyucA8vUhhJ0KYlEmZ9DEcNAJHIT9CGEZkWVHjdpGmwN19xKEHMxNcXGaNGQkjn8uggHFCRke5qbsqHb3JkkpVwbMdUsTgk/JskaUbvwONFP0J/RBb4M0ZIMbbH5GmtDPgC82SejeCEdhvb2Ml8JvHCjpbUQe2PnKEPoTwAshEZrTuRNO7sJzoRSh7wbQTVFG3z1u0V0XkQn7eikD/qgaKug6sQhaqwARVn4G38BT0ui2RBFxSTI8KUL+I/SDK8ij31nLeJnQRyUIQesXh8pM6LNO448T1KPyhMEU/Ma9tPKbnyGKNgnqUXlC4Ug3HHFFB0DoHDCYMAq/kg7pcgeI8wwFoBQhQ/DtI4yoeZfRoAKUJMzm4Z9EQJ7STN8HqSKngwpQknAcbkTkSf8Y1nRK47ODpGUCEgpfz4E6afqfQ8MaIvJOh4U8UcgTBkGnLQVCDDg0NBDRCjGKgwydBWUIGR5mRA8GHBAUCWjB6M8SF6NgQiYKGIktFx04UGQS/EUZsLikEkA5Qkb+jgwM+OPQEeFAJKw2IOMs2xUAyhLOyF43hDI/DnwFHBgYGlZ5SWrqDGWIARLycndG4TRxbqBDw+GAap7KN2DbERQQ4tpNaigKeXBooFthlczIxae+UGZBAkImJ7FHChdrbWPwq6MORSbVYOQbTYeiIQgkFL7/29dFxQBbnhoZUeqp/vinPeokSETI+F7181MBUIzvYDROKhmO42vOpmIHhRJiPxWtwMXHYJuv4uFI56x+X/Jz0wFeA1VO6K+xIqUNwmlC3EXbxmMIl36kfBwf/bxfvKwsR5ARMqG53rwvJPpzkoAtxmHSWpVncvvfu5UHGDJCPBS7CQUXlcE7GpBD4RAHq+U4X7SBKzT16OCE/mjXxBuSCjI9loyERyYxIieB6ed90fhPzd0vdnXiCykhw3SWNuJ5UMJXB8KhydBR49FOevT1uahzp1n+UrS4VbYgnHCmYwcKIrDgISX21sjIyMhkKBQ4ziLYbrlGo/Hp06fmHqZTKXrSEfrbdy+QuGiHhodxfI2Ewxh15K8mVrlcdjiKRYtLfduREra+d4EgeVDGlkc69w1OCC25taMjI2Ry+VZa7OwHqXXuG7rJQS0JmYkSLt+EIDOgHNCchEwyj1qAasichNhRyaPoySJkcnU1xqCZCZlsWB1A8xIyQZUQzUvIMGFV/NTEhBwz8vfNFocKjvxdM/5XBUKRYTMQgip1KkIh3ihFVE7ospQh08WUhEwgbDQhBkx+oDqtDhSnEFEpocteTvqntCTEWcNIQpdlJ8owGhMyzJCCmKqI0O12tHa3aE0YZBSkDSWE9mIz3przobpFiUyTEf0JXRbHzuHmHc29FMebQHiYzoy0hC53sdk4msr6/L38M+yOhhJCekZKQrtl13l8UMcJWB+2764pIxQYIxSMVIR2S7HZvoGuAbhkyL472ffVwZqkSBwUhC6L+8tUxx8OAAai/YMaq7VcaGiAsIyjITwz1b13Lif/DJeiQNOmkQhZWCUldF127PSelIvLbudznUmqA8gJmSNCMBzJCDHfVE5kZcc3JXf4wt1UbVsoh/tGAjOSELpcjqYzKnogIC67L7qh5iatYDAA7qrAhG63ZX+n0W/zKr8jvZjq3lf7EGgwEBoahtRyMEK73eKYasQljgLEy5clnuOyNNTfYx/igiPCCoxiQpfd7iruTjml9x5zSYltby57U5NzvFwohEekjLvKEbrcluLe7tQ12eM4wZW+nT5ukrXbfR4QssewBKUUocvlshQd+5+ABWXD0W95rqnteSVuMhyODPWDFCfEbDj82/f2/xRJfn3V2L/cu/rvchX/1PgojxClQyOYUhSzi9B1YDmL/fKXvf2mM86TvByfEzbAuTqfZ9/TZgx2SsjRgRHssEM90wHdhNh4drvdsb/jTObiHKFz+aPOfXt7wHHZi2WnXpcFcEEO50lhXA61D0xMeHxfc2vYNZvORjxO++XPeKPpcB08DGdQx04jrvMBZQ4reKBAaHISO+9f++Vy+QPW1OfGdhQrrvBIii+63fj8QXiocztq4KWHXCAUCgWCQc6XS+bW1mZCITX39wdncsl4yOB71k51qlOd6lQnWP8HMFkAOWn7+TYAAAAASUVORK5CYII=;strokeWidth=3;" vertex="1" parent="1">
          <mxGeometry x="-181.25" y="1036.5" width="46.5" height="46.5" as="geometry" />
        </mxCell>
        <mxCell id="WqEL0ySqIm0HVowMZsN5-50" value="" style="shape=image;verticalLabelPosition=bottom;labelBackgroundColor=#ffffff;verticalAlign=top;aspect=fixed;imageAspect=0;image=data:image/png,iVBORw0KGgoAAAANSUhEUgAAAXQAAACICAMAAADAmuC3AAAAqFBMVEX///8bFxsAAAAZFRkWERYQChADAANOm81cWVwJAAkYExjw8PBJmcy5uLn6+vrh4eE6NzohHSHp6enT0tOioaJkYmRCP0JSUFJDlsuRj5GIh4h0c3TIx8g2MzbCwcImIiZta23u9fqtrK0tKi2mpaaOjY7Y19jU5vJKR0p7eXuCgYKy0eeCttpdo9HJ3++exuJtq9Xi7vaUweCtzubZ6POJvN1oqNPL4O+ahOL/AAAOPklEQVR4nO1caWOivBbWkKiAoIIL7riU6qit3f//P7vnJCQEtNpO6fS9M3k+FbKQPDk5W2IrFQMDAwMDAwMDAwMDAwMDAwMDAwMDAwMDAwMDAwMDAwMDAwMDA4NvxOLhp0fwD2J3uPvpIfzdWLzsnv3Cq0MU7Y2wfyMeoqh+fFrk3t2+NpuHtx8a0L+Ap6hZb0bNl9v8W3h3/0Mj+gew2B3rTUD9mKP99tCM9ov3Ghl8GYvdnov7q65RFvsoOhjF/kXcvh6P+8enu+eF7xfL/IdHFPe6Ltv+PSj25z85wr8QdxFqkQhwON7vTth8vudK5l5bkCd4cVusZ/AZIOn1Zh0BhrP++vhWUNkPL0i7rmPuoL5xYr6C2+N+f6ijpDe5KmlGh5ddnve3fQSvH7OXwHrTaJivABSH7y9ud/f7VyAfZB6oPzzmbeXuALS/Zjzf1psHo2FKgf/w9nSMuLqJ6nkP/WGPr3fqGTWM8RxLAziKINYo7sc7ndYdvnpU9vQtah4N6yXi4ekgxD0XGD2/Rs3oRRF9H0X7Hxjb34y3fZ1r95yH/gILkYn3Y2QyAmXjGcPRenTI9DjERZGWBPBfm3XjwpSN52MTaT9qjswOVb1k/eHQPJwEsQZfhL/DcCmXzd2hrPvZg1Ew5cO/R9UeZU4LyHo9M6CPzch469+AN/Qf9WzuU1RXBnRxaB5/Zlh/Ox55biYzmTrrd1H09DOj+m9jOAZ4X+lhh7GSFvW/RJlWOZrA9BwGxLbJzZe6eD6gYlc3Afx9synPMZ5B4X+p778TDVatkuHX+njguV/lxCwgapK6/MWcI51BGaRXFkdUMUrWb+tNqcsfmkbUT1EK6ZXFHmVdWVO8K5A+POoxq4FAOaTjgXS9mWmSo1Iwxo6eQUmkVxaverrrGRSMuWP3LsoiHVMt9ehFPoGCeTVC/h5KIx3NZ72pYqF63WR230V5pFfu8GDjWT2YuOhdlEh65T7K1DqGSP+IqAfBZ1uUSboPUb9SKm/gNn5LXOQHQTjzwiBwi9l6LPE8KHIL7wVUpVZQrIGvw2E8aAM28TLwTxqLN26QeJ6vNVrH/elq1W78Ck96vACNdByOl7y3br7rnl6sKwBDUy3v8i1afRmvCAftj9ctrcBdbtuihPS3GjOV1pgjnsHfwNLUJqTaWOem6S7jOSGMUQCzCYtDWeIPY954iB3OBjXoXbVMxlViU+pAG0I2XY12P5wAcp8Qr0SdjHRvLGYzvZmczNSfDbeNTW/cPS3KYYcKJp0vqPjyT45mfdumVhVhUZvM1XiCYUcrqdmrpfp2wmwEzNLvdmpYybIYoTfZ4NZz23aqGSybjeTG6BHeeOBW3J7NoK0kPRg7tpW1YWSa5Q3dhu1Q0tVHHrSZ4xBRRZIe4mzEiGGhdQmC+t0VIzZjIAO0710iEjR5PUpD0AVESGVHo0PCtHlW6UoKU9gnjl4Cs+jJsmTOCa3dAIFUVXJIrLrdEr0tb09G6YzGNqd04Lo9XkuSPumLR1xRxrtltkocug1mWUXSKbzKkb5kuIiOZYkvtnXWYUIUxKpWg4UGEdleYv0Zk+tpBfDV9+WK+rhADmukBWvKqkXa7FW6DZIVJ53Fg1xzxSvMkBRbVyVl/paTTvtBTNICTvrMYfyhM4jHca9PxNM4na+LtNaKpAPTOukeSDlI+HTOiBjgKlG1cUIW6cej0bbB/xxcshmP2RnGomxT6knSLMooCrb0AGaEKgHOZJmtxEBbU1FKVaW0KpPKyYXOUFsh5FaicyHRv1LSPSJXA98nHYZ/kq4woK1ZA4dg1dJ1/ADpbNtnDlktJ0k4GXb4zOyBrDypwXrUhnwE/qxPoOdfF4hBW3pI3cZ9MypTv7irlDVG+4PNyiYWEaKROJJOSjpTpjStPeCC12oX2Far0k97Bh3CapvxaLlcdnuS9XRFRzVO9WrqaKS7U875UNvIk76Nr9ZiqNdJBxmg87UcwJCzLoUIJ0TnSu79Bsr67AI1T5nbCAHS66epfR8TIrlKAvDdwhHpCGFs2JLl+TppwXsq+eGTavUz0sHNIGpRLCK16Jo0pK/hS5FmGy7EN6lWccQWoxRJH8JKOHaOVPgMDIO2eTcfIR02pXZix1mn6d7s2VXH0QpxrypVeg4LvK4u/sR0TIn6RZi0qjOVVPkTLmmeZNFuCMkLV4p1nIRGur3pet2x0kDK1LUS7Tu/amkp/84w0/eWTdr9Pqx0ggyRZWF87gZVNVcDHyG9ILsjokQdJ5Q/zVuDgqGXRB21epqC2Zfqv/SEsQSblnvtx6mg075cjaUkiot6oEgnPVcUy1XanvtOmC6iICUjnZI4bLVaiV/ZwrKQ8WlDYqXr/BHS7V6usYuDYpuKcJhEN7nCiyHsM57WCZF7KvUWaSP1UOz8kW5LUqi5aJu0KkPZV5LO5DRvbKlB8uvnglHzhttqSjq3iop0upJr6sJup9O8W82BRpeP4gOkW9VCzIMfslCRBzAhO7+k/ga+2L/kCuJFUnFguni8KzHpJSXaIrF+fSET60w41uk7Ok0yQ5pt0DA1lrlN4663g5Wu88XERzWpW9T2noF+OrtJwo4lVvYDpJ9wOKk64PV76KSpigpbFP5LpN9BWPpyofx3odgFc7j6FcohZNolqzrpOClTk4x0OlWjTouduRLXZAxss1yAJTaGJN2OVe9dZOVsbA47jCu5j7iMRcMYbKjQhzAhZz5xc8BogSSVC8AMzKXy30SwyrwQ8A17aX5kILWOJnuB9BJxlor0bFWk7DuS9OG8VgxKC6QT6d4JnWufFTvQL1Yn/BjpcbFxnCYHYOWszmaQw9R6b50lXrS0V5nw9IgSYuOYK4eN5FczNL5U6ugEnCE9XShJutsgZ1z5Aulqyj60dlZnSedexuQ3SUdpBslxsSKEfzlY1Wuk34JS/5aLF8McN5a9aQmrVhDFSib+uBLXSR8rxQVxqS2jowLpWeIRWrPBWdK9r5COXwLSAz4h6xSXSV+81r/pF0deNacF7KkrBIOzos9x8BlJX6c7CDZPZzMe91Lv5RLp9LykL79COsYHYLwF6Z1TZCM4C9Av3/QrjCSmeqIRBbl/Rr24fU38r5Hup3vFsgcenoyE10hHS0fPkg6VneoHSe8VG4+Fw4mkO6tJcIrL2cNdVC8166Jj0t0QlfymczczpHFWqZXaXL4lr5Gephcslvr/oXWZdO5Rnxe7T3gv9klwhcEfCIkg/aKnchYP3+Q0CrhhvJKZXJi7dBmdTlZllkb6zjy8Tnoa9ivRu0q6B3utNqqcAjP3mZ9+kk+/TDrGcDyUQO+FXjktOge87vX5Vh9HMs0UeRYcZTHiSE9aXSM9TS8ojkJ6hfTgvYgUk2O8Gx/7rOUi59bcuuynY8TGA4feyYJ9DHhC/a0/8prZKlQPVASpUs6BTGnxLPQ10tP0gvJ+VJrxPdL55jqT4E6ozL0I9y/WKUh4QkuLSKeFw2hswjCjjrEXT8J8Eo9AeumW1NfSbFIaQSJUwsuqygpbJfyoGj9KuhRMuYveJz3hma1i1k9kGYXWQJnP08qVmJ57YXlhDlTmkieTLvuHZ4GWtPS7jAHZrKUFv9FClomUa1rluV73Rsk+p+0a6eJADjjitAZx2vUF0nlmi67yrAfYKU0toKfJNUfCXaLcIUY1p6DGtjzz5VLELp7PncVtpN2wKwseYcTp3ayXy7U8LKUdHFpPJQJZb70cqqNQp8OJuka6NAps2p153bY8EblEeoCWnJKufnK04aKc+q0u9qnpCFd8UVcvNJfjHKLkpJp8gk5xLf4sP5jeLT0mRVmA+KWGVyJSXkSWN5hKZwaKbaIeUi191U/vpPqE1ijTYt4LpFcmeEJo2fMlv7bkg0PFsEumXBKRMv+VimuwsfnRU0Y6HbQpm8qsXYvfR1BnpHgGbpGG7jb6Z+x2AQ+v3+AzyoDHyo6e08PjUBFdrapCi6QZsKsRaTfLAmBrKrPtF0iH7cEzJKTTGw2H443IB9O+0gkzZNEiPS+ouAlsH6vazrwXmAkZQg3G4mUSJN7NlJ9gTCXLwRSHYFdHnujPDbtjelXdLI71sq9fgBNczAPaapRhphQkaE1GqFdJ93tEa8j6I9EZdyXeI70y48RUHVYjRN1yUqa84gtjziCOcxiUk+HSVkd84M7DLlzbjoV3ZphdwwHWtHsvrT5+1bFhrTabFfQAG/jSaR0HXjQqO/uyzF80goEMslEGjVwpqJm5smItvOYDYO8mvFoDdZZNCWmBI5HVH5E03VQMQaER066FiftG2SfcubiMZOFtIgq7jp98CoU3p/xaTRdCa943H/BA1ybJQNykcRzGqIU3RMi5aCwHvOlV9o8C3O7AEecMFt4dnPfyhyuTRjXlHRX7RrsdAaQ7CJ10whOmti0nOmwTLnNkdQPbmPD6dIo7eiQenDNx/6xhpZ8ECZh2uHuSBURBLJWeReZdVDiMpXZ2RR1Of9ijBO9PwnQaxWhoPcjECEWhfT1cevmO/4nphut404HtPB3czJKTO7tJd8DE/dFR7u6mn4QCmSiNGj0BVa/ljRur3nbGRV82wE+0Qu3h5JPDDf9itee1eH6YakkTf9lPL7T+wl4T+GZDqBfsTlwkCruN+Xw1GE5ONbbr9YhEezS5bkgru/3+5Ud+E+B/2r39MhKxcu4cVZSdj+4TvLr9+127rdms1frzU/r/gUjLF4+UDb4XPfRn0jteBn8IobgGetXNMCgTeMWxeupcGnwn+PEmK+snXAYfA4T2pH81dDQoFX5MtsaO/mm0jMNoYGBgYGBgYGBgYGBgYGBgYGBgYGBgYGBgYGBgYGBgYGBgYGBgYGBgYGBgYGBgYGBgYGBgYPBR/A8NWAsV7swkJQAAAABJRU5ErkJggg==;strokeWidth=3;" vertex="1" parent="1">
          <mxGeometry x="-238.66" y="1100.25" width="125.82" height="46" as="geometry" />
        </mxCell>
        <mxCell id="WqEL0ySqIm0HVowMZsN5-51" value="" style="shape=mxgraph.cisco.people.androgenous_person;html=1;pointerEvents=1;dashed=0;fillColor=#036897;strokeColor=#ffffff;strokeWidth=2;verticalLabelPosition=bottom;verticalAlign=top;align=center;outlineConnect=0;rounded=1;" vertex="1" parent="1">
          <mxGeometry x="-285.75" y="1371" width="69" height="82" as="geometry" />
        </mxCell>
        <mxCell id="WqEL0ySqIm0HVowMZsN5-52" value="&lt;b&gt;DEVOPS&lt;/b&gt;" style="text;html=1;strokeColor=none;fillColor=none;align=center;verticalAlign=middle;whiteSpace=wrap;rounded=0;" vertex="1" parent="1">
          <mxGeometry x="-290" y="1453.5" width="77.5" height="20" as="geometry" />
        </mxCell>
        <mxCell id="WqEL0ySqIm0HVowMZsN5-53" value="&lt;b&gt;GIT&lt;/b&gt;" style="text;html=1;strokeColor=none;fillColor=none;align=center;verticalAlign=middle;whiteSpace=wrap;rounded=0;" vertex="1" parent="1">
          <mxGeometry x="-128.25" y="1453.5" width="77.5" height="20" as="geometry" />
        </mxCell>
        <mxCell id="WqEL0ySqIm0HVowMZsN5-54" value="" style="endArrow=classic;html=1;strokeWidth=3;" edge="1" parent="1">
          <mxGeometry width="50" height="50" relative="1" as="geometry">
            <mxPoint x="-212.5" y="1423" as="sourcePoint" />
            <mxPoint x="-132.5" y="1423" as="targetPoint" />
          </mxGeometry>
        </mxCell>
        <mxCell id="WqEL0ySqIm0HVowMZsN5-55" value="commit" style="text;html=1;strokeColor=none;fillColor=none;align=center;verticalAlign=middle;whiteSpace=wrap;rounded=0;" vertex="1" parent="1">
          <mxGeometry x="-195.75" y="1393.5" width="40" height="20" as="geometry" />
        </mxCell>
        <mxCell id="WqEL0ySqIm0HVowMZsN5-56" value="" style="endArrow=classic;html=1;strokeWidth=3;" edge="1" parent="1">
          <mxGeometry width="50" height="50" relative="1" as="geometry">
            <mxPoint x="-10.75" y="1075" as="sourcePoint" />
            <mxPoint x="-105.75" y="1075" as="targetPoint" />
          </mxGeometry>
        </mxCell>
        <mxCell id="WqEL0ySqIm0HVowMZsN5-57" value="" style="endArrow=classic;html=1;strokeWidth=3;" edge="1" parent="1">
          <mxGeometry width="50" height="50" relative="1" as="geometry">
            <mxPoint x="-10.75" y="1129.5" as="sourcePoint" />
            <mxPoint x="-105.75" y="1130" as="targetPoint" />
          </mxGeometry>
        </mxCell>
        <mxCell id="WqEL0ySqIm0HVowMZsN5-58" value="repost" style="text;html=1;strokeColor=none;fillColor=none;align=center;verticalAlign=middle;whiteSpace=wrap;rounded=0;" vertex="1" parent="1">
          <mxGeometry x="-75.75" y="1046.5" width="40" height="20" as="geometry" />
        </mxCell>
        <mxCell id="WqEL0ySqIm0HVowMZsN5-59" value="scan" style="text;html=1;strokeColor=none;fillColor=none;align=center;verticalAlign=middle;whiteSpace=wrap;rounded=0;" vertex="1" parent="1">
          <mxGeometry x="-75.75" y="1100.25" width="40" height="20" as="geometry" />
        </mxCell>
        <mxCell id="WqEL0ySqIm0HVowMZsN5-60" value="" style="endArrow=classic;html=1;strokeWidth=3;" edge="1" parent="1">
          <mxGeometry width="50" height="50" relative="1" as="geometry">
            <mxPoint x="-54.1099999999999" y="1366.5" as="sourcePoint" />
            <mxPoint x="45.8900000000001" y="1229" as="targetPoint" />
          </mxGeometry>
        </mxCell>
        <mxCell id="WqEL0ySqIm0HVowMZsN5-61" value="" style="shape=image;verticalLabelPosition=bottom;labelBackgroundColor=#ffffff;verticalAlign=top;aspect=fixed;imageAspect=0;image=data:image/png,iVBORw0KGgoAAAANSUhEUgAAATYAAACiCAMAAAD84hF6AAAAxlBMVEX///9kVKMpHlRiUqJeTaBZR55gT6FcSp/19PldTKBbSZ9nV6UAAETi4eXW0+VXRJ3r6fN6ba9zZawtIVuJfrcjGE+cksPLx9739vpSRoG2r9Li3+1UQJvb2OhpWqZvYKmAc7PBu9mknMavqM0kFlSGerbu7PWPhLuimcaqo8u9t9bJxN1+cbKSibzCvtPIxNaBeaEOAEZhWoAZB0tSSni3tMatqMRoX49ybod0bJV/e5QAAEB3cZEAADmoosFDN3FFLZVOOJmtTomMAAAIpklEQVR4nO2de5vqthGHcSVLljnxLcQ4NmDAZ7GB46RJ2iZt0yb5/l+quvjCLgZ2zab2onn/WG6GR/t7JI1GMyNPJgAAAAAAAADwenZfXeS7777/aujmjZPor19/lnzq4AfOjyBcBz/+8M1frvLT36yh2zg+/v7pumicT/8YupHj4+fPN2X7/MvQjRwf394YoiBbJ/+83dt++tfQjRwf3//79ty2HLqRI+TXT99c5fN/wCJ08d/fvn7Jtyf8Oh+6gQAATJwybClnJ6y9ods2Yg4uacEnz8kCZLvMxjYu4IJsl3FMkK0HIFsvQLZegGy9ANl6AbL1AmTrBcjWC5CtFyBbLy7LZjpDt23EXJENNikvA7L1AmTrBcjWC5CtFyBbL0C2Xswvborbm6HbNmJm5JJs5Gnoto0Xb3pJNe5dJUO3brTE7LJsbDt060ZLgC7LZhjR0M0bKQ6+phoYhQvkV2UDo9CNha+OUTAK3VwzCAIMRqGL1fXOZqAV1CWc49DrqoFR6CS/6CHUkNnQbRwflts9MjFrLAViYBRecugao4j5+3gb1B+x/dCtHB1+h0FALBOugVVUGyMoAKPwnGTRZQPi6tNt1d/M46CNHB9Fh4dw4hekCIxCB1GXh2C3fataCiMCRuGUYz17IUIaAemu+TyxwSh0sCaVan74ZNQLuFW7VRTVsqawfdSSuJUooobP88m5bHVshoFRaNkz1dfUzGUp7xShVrZdHZsBo9ASTdGziauq6jgJ8m3qFW8tLcBFUUOwzWFTZoGUzRXtYhhiCg0qzodIMyiroIJbT2SHNuyM0oEaOTqSWpTmnS/omVewsU9WdRTi84ptta27aDzOOl6KWH5cHtenqkFMocKqt3VpPSa9dhOJUEyfb8QhDGm8gqYaEgXV5HY5p0GAs2HbOxJakXApdcuux2LQdOgWj4HkxItnT4flJmc3YjE2GIUXfYtQk96OKYBRmFjXEz86gdqOyfxiAuVlGBiF23G+c5Bx+3cfG+9cErFViVkFIQTxt15cpH0m756eCEawjdE0XT+VRazIwnLmr6aE2kK9BpIP3e5hiWqDgDBlxro4OklHTM9KnE3oI9Ya2YXekT+V+ME7U1rMb22kRctjaVAlHY1vXPzYSA+B5Mfd7UsV3nEm1nl6bx95YsI62Y18FbHooa7O9aVCAUTeeHaiRZFwX/+cFn0IRLCdrN/6rZCPbGS+elw/HHMxTZlvTvaT+SIaG4VSdJv07WsJsWpB/p/QoA+BJQJUfSJRMvxn62oUDqxvMowr5sTw3Rv0MZAGoVeUXaZ1TfU0CksRQ7B75XTIEKGmRkGuI4J+GUQiQwn5OmYfRSL62Tdf7SiNgo5njIvUcER7bm9HIraKdTQKIhum/76ZjORraBTkUr//Lq0n1nz24T1b9CEQawi06j+pz4iWnoIwCPcsIeQGJ9XNKEj/6K6t7aDHVt2Hx7/bPZK7lVO9As0yNfy+HVp5aAjVyyhIg3DnhC63nYL3ac/HQK5W701JcMTSjem0fXQUrrh5pxncrXQzCjLxY3Hnj0TCrKDVuzToQ6Cydd17f+ZJTG5Yn6WbSmm+WzaZhq9RaqU6FHBx53aZSijUaLNSyXZvP5GWVKcUwaUcpPcW65WyTlyjM1UslXh63znhjqpn02jhVmW1odUdHmVS1c5MNcp0y1QOJZn2Lg51pipFUKuN8V1VfIYW/Sb0qHCrH8BaVeUe6mI0iuI3j7Jku6hLQGx97KgkbMoRmLne3O4yVoXnFKnZHLViapf6XCyazG9CGQn8FtIBrmkP2DKQXQz9X/z/OaKTkjT0atqv0Kk+ftUJVmHequW7CCLmdK9jLoNgt/dN9qxOwzgreOnoi4SZeLbRaL12RpRks4C5JxjTc9LgGU/bo86aVVg774SddcbLt4ZuMAAAAAAAAAAAAAAAFVG21yur9H3ITZqKEo0sDKvYilWE4Ss2cflVeqWjniKSLF2ReOVTWmWoei52XxGdIszUKT/wBTOTytsL+Qit1TseNdgrcoo0izO/IIr3Mvb3pZFt9zrZpo8tW1iWshQymZW5wx9y/hAdwzJTRWd8TiuiiZOvEFqVJX8az5CB/DJX4zSab8syq4Oq4lUYCxNyzEXOeJk/7AHQKaMyPctZEJfP9AkjNFy7GFMk5/2SssCabOQNThhdRZNSVDgjpsLIS99lGDMzlCErT76iJNxNMldeZT9sCVaKVFabY8qswCVGBmaYYAPJO/TlRNwl55iK40794CmaFOLpyg/ECDxighil/I8oRoh8bOApogRbk0OK5FUPG6MPkCohrWRLEJdttkwKpuamkKibC52YBFafs7sz+MjdO/MZNuhe/AKazr1kk8qZz0APPbcFZ71N1cIESGbK5+eyNSYho8ZKTmszYjBxGxQk07wiOWIf3JK+GKS8t6lq+QLLxPGO3tbIxt8LMk6cE1EamDBk2E2Q+cFlezFIeW9TubdbLKs7rvU2vhRG6rhKdYJs4RJEqFtK4R5fNnnWcNvbnsl2rbdx2cii4ncxPJ31gvKp0RRfeHzZ1uJxY7+5t/noLLXcildE3XrtwWVbE3moUfQFdfc23MjGFxliCbxTgvBBmdnVHSYSlRuuXHcfYZHkpk7MftiDGrg5RKssTomq5liS7t4WYoPke3Fug6hHI0W5UAsQHM7nIZX5upmbxkvPSZEsg1kTg5QFetRk+x0XDIlDiI3O3lZWvW25EIfwYnEaT8w9AMJ9iclkbgsbwP+wKR+fBkWMi4sIEn1sbsovPOwZ7UlqYmwGsUsWR3E6FHblYCtM8gd/yG2m7qW5MSnhXpR4Gi4Yd6GEuMsv0p2yc+GHegW2Gfe0VqrCLzb5Ve7j3qou2hTFJkrKsOT/rxeGpRxYG/6EP8RhuFU5kl4W7iuf3dkWcbXn62Rhcahd+d1hG7aZbst9mGmVbA8AAAAAAAAAwOj4H14xl//BLxsZAAAAAElFTkSuQmCC;" vertex="1" parent="1">
          <mxGeometry x="-226.89000000000001" y="1150" width="137.78" height="72" as="geometry" />
        </mxCell>
        <mxCell id="WqEL0ySqIm0HVowMZsN5-62" value="" style="endArrow=classic;html=1;strokeWidth=3;" edge="1" parent="1">
          <mxGeometry width="50" height="50" relative="1" as="geometry">
            <mxPoint x="-5.75" y="1185" as="sourcePoint" />
            <mxPoint x="-101.5" y="1185" as="targetPoint" />
          </mxGeometry>
        </mxCell>
        <mxCell id="WqEL0ySqIm0HVowMZsN5-63" value="" style="outlineConnect=0;fontColor=#232F3E;gradientColor=none;fillColor=#277116;strokeColor=none;dashed=0;verticalLabelPosition=bottom;verticalAlign=top;align=center;html=1;fontSize=12;fontStyle=0;aspect=fixed;pointerEvents=1;shape=mxgraph.aws4.bucket;" vertex="1" parent="1">
          <mxGeometry x="171.75" y="1270" width="45.19" height="47" as="geometry" />
        </mxCell>
        <mxCell id="WqEL0ySqIm0HVowMZsN5-68" value="" style="group" vertex="1" connectable="0" parent="1">
          <mxGeometry x="390" y="999.5" width="330" height="450" as="geometry" />
        </mxCell>
        <mxCell id="WqEL0ySqIm0HVowMZsN5-64" value="AWS Cloud" style="points=[[0,0],[0.25,0],[0.5,0],[0.75,0],[1,0],[1,0.25],[1,0.5],[1,0.75],[1,1],[0.75,1],[0.5,1],[0.25,1],[0,1],[0,0.75],[0,0.5],[0,0.25]];outlineConnect=0;gradientColor=none;html=1;whiteSpace=wrap;fontSize=12;fontStyle=0;shape=mxgraph.aws4.group;grIcon=mxgraph.aws4.group_aws_cloud_alt;strokeColor=#232F3E;fillColor=none;verticalAlign=top;align=left;spacingLeft=30;fontColor=#232F3E;dashed=0;strokeWidth=2;" vertex="1" parent="WqEL0ySqIm0HVowMZsN5-68">
          <mxGeometry width="330" height="450" as="geometry" />
        </mxCell>
        <mxCell id="WqEL0ySqIm0HVowMZsN5-66" value="Region" style="points=[[0,0],[0.25,0],[0.5,0],[0.75,0],[1,0],[1,0.25],[1,0.5],[1,0.75],[1,1],[0.75,1],[0.5,1],[0.25,1],[0,1],[0,0.75],[0,0.5],[0,0.25]];outlineConnect=0;gradientColor=none;html=1;whiteSpace=wrap;fontSize=12;fontStyle=0;shape=mxgraph.aws4.group;grIcon=mxgraph.aws4.group_region;strokeColor=#147EBA;fillColor=none;verticalAlign=top;align=left;spacingLeft=30;fontColor=#147EBA;dashed=1;strokeWidth=2;" vertex="1" parent="WqEL0ySqIm0HVowMZsN5-68">
          <mxGeometry x="21.179706601466993" y="24.258760107816713" width="285.42176039119806" height="401.4824797843666" as="geometry" />
        </mxCell>
        <mxCell id="WqEL0ySqIm0HVowMZsN5-67" value="VPC" style="points=[[0,0],[0.25,0],[0.5,0],[0.75,0],[1,0],[1,0.25],[1,0.5],[1,0.75],[1,1],[0.75,1],[0.5,1],[0.25,1],[0,1],[0,0.75],[0,0.5],[0,0.25]];outlineConnect=0;gradientColor=none;html=1;whiteSpace=wrap;fontSize=12;fontStyle=0;shape=mxgraph.aws4.group;grIcon=mxgraph.aws4.group_vpc;strokeColor=#248814;fillColor=none;verticalAlign=top;align=left;spacingLeft=30;fontColor=#AAB7B8;dashed=0;strokeWidth=2;" vertex="1" parent="WqEL0ySqIm0HVowMZsN5-68">
          <mxGeometry x="43.67457212713936" y="49.97304582210243" width="240.440097799511" height="356.8463611859838" as="geometry" />
        </mxCell>
        <mxCell id="WqEL0ySqIm0HVowMZsN5-72" value="" style="points=[[0,0,0],[0.25,0,0],[0.5,0,0],[0.75,0,0],[1,0,0],[0,1,0],[0.25,1,0],[0.5,1,0],[0.75,1,0],[1,1,0],[0,0.25,0],[0,0.5,0],[0,0.75,0],[1,0.25,0],[1,0.5,0],[1,0.75,0]];outlineConnect=0;fontColor=#232F3E;gradientColor=#F78E04;gradientDirection=north;fillColor=#D05C17;strokeColor=#ffffff;dashed=0;verticalLabelPosition=bottom;verticalAlign=top;align=center;html=1;fontSize=12;fontStyle=0;aspect=fixed;shape=mxgraph.aws4.resourceIcon;resIcon=mxgraph.aws4.eks;" vertex="1" parent="WqEL0ySqIm0HVowMZsN5-68">
          <mxGeometry x="124.89000000000001" y="80.50000000000003" width="78" height="78" as="geometry" />
        </mxCell>
        <mxCell id="WqEL0ySqIm0HVowMZsN5-43" value="&lt;b&gt;&lt;font style=&quot;font-size: 14px&quot;&gt;EKS CLUSTER&lt;/font&gt;&lt;/b&gt;" style="text;html=1;strokeColor=none;fillColor=none;align=center;verticalAlign=middle;whiteSpace=wrap;rounded=0;" vertex="1" parent="WqEL0ySqIm0HVowMZsN5-68">
          <mxGeometry x="85" y="160.5" width="160" height="20" as="geometry" />
        </mxCell>
        <mxCell id="WqEL0ySqIm0HVowMZsN5-69" value="" style="points=[[0,0,0],[0.25,0,0],[0.5,0,0],[0.75,0,0],[1,0,0],[0,1,0],[0.25,1,0],[0.5,1,0],[0.75,1,0],[1,1,0],[0,0.25,0],[0,0.5,0],[0,0.75,0],[1,0.25,0],[1,0.5,0],[1,0.75,0]];outlineConnect=0;fontColor=#232F3E;gradientColor=#F78E04;gradientDirection=north;fillColor=#D05C17;strokeColor=#ffffff;dashed=0;verticalLabelPosition=bottom;verticalAlign=top;align=center;html=1;fontSize=12;fontStyle=0;aspect=fixed;shape=mxgraph.aws4.resourceIcon;resIcon=mxgraph.aws4.ecr;" vertex="1" parent="1">
          <mxGeometry x="255" y="1122" width="60" height="60" as="geometry" />
        </mxCell>
      </root>
    </mxGraphModel>
  </diagram>
</mxfile>
